<mxfile host="app.diagrams.net" modified="2024-04-26T16:09:36.532Z" agent="Mozilla/5.0 (Windows NT 10.0; Win64; x64) AppleWebKit/537.36 (KHTML, like Gecko) Chrome/124.0.0.0 Safari/537.36 Edg/124.0.0.0" etag="5zlfTKtDuRsmuhQIsnzk" version="24.3.0" type="github">
  <diagram name="Page-1" id="74b105a0-9070-1c63-61bc-23e55f88626e">
    <mxGraphModel dx="1386" dy="793" grid="1" gridSize="10" guides="1" tooltips="1" connect="1" arrows="1" fold="1" page="1" pageScale="1.5" pageWidth="1169" pageHeight="826" background="none" math="0" shadow="0">
      <root>
        <mxCell id="0" style=";html=1;" />
        <mxCell id="1" style=";html=1;" parent="0" />
        <mxCell id="10b056a9c633e61c-30" value="Title" style="text;strokeColor=none;fillColor=none;html=1;fontSize=24;fontStyle=1;verticalAlign=middle;align=center;" parent="1" vertex="1">
          <mxGeometry x="80" y="40" width="1590" height="40" as="geometry" />
        </mxCell>
        <mxCell id="hAGfu4WVWiaM9kF5Nsgz-1" value="Abre um seletor de arquivo para ID_" style="whiteSpace=wrap;html=1;aspect=fixed;fillColor=#ffe6cc;strokeColor=#d79b00;fontStyle=1;fontSize=15;" vertex="1" parent="1">
          <mxGeometry x="1800" y="1230" width="250" height="250" as="geometry" />
        </mxCell>
        <mxCell id="hAGfu4WVWiaM9kF5Nsgz-2" value="" style="triangle;whiteSpace=wrap;html=1;fillColor=#ffe6cc;strokeColor=#d79b00;" vertex="1" parent="1">
          <mxGeometry x="2110" y="1315" width="60" height="80" as="geometry" />
        </mxCell>
        <mxCell id="hAGfu4WVWiaM9kF5Nsgz-3" value="Gera as pastas com o arquivo ID_ no seu lugar" style="whiteSpace=wrap;html=1;aspect=fixed;fillColor=#ffe6cc;strokeColor=#d79b00;fontStyle=1;fontSize=15;" vertex="1" parent="1">
          <mxGeometry x="2220" y="1230" width="250" height="250" as="geometry" />
        </mxCell>
        <mxCell id="hAGfu4WVWiaM9kF5Nsgz-4" value="" style="triangle;whiteSpace=wrap;html=1;fillColor=#ffe6cc;strokeColor=#d79b00;" vertex="1" parent="1">
          <mxGeometry x="3090" y="1314.5" width="60" height="80" as="geometry" />
        </mxCell>
        <mxCell id="hAGfu4WVWiaM9kF5Nsgz-5" value="" style="shape=image;verticalLabelPosition=bottom;labelBackgroundColor=default;verticalAlign=top;aspect=fixed;imageAspect=0;image=data:image/png,iVBORw0KGgoAAAANSUhEUgAAAl4AAAD5CAYAAAD2pzv5AAAAAXNSR0IArs4c6QAAAARnQU1BAACxjwv8YQUAAAAJcEhZcwAADsMAAA7DAcdvqGQAAGepSURBVHhe7b1tbCPbmef3V7oB38Ab24u7ALvo7NowpLuYXpkdiRsjkWAYCAKtxKaNzmZW/hAEjABGypdp6UsDyqo3gTfSjoAONpIQJ5AiQKMP+TC9A6MBsyld7WKwzqQFGwlJiNb2Oi3tnfHOgi8zvnHadgLj2rjKc16KdVisU1WU2Gq2+Py6S1V1Xp5z6pDS+dfzHLKGLggwDDPQ1Go1JJNJfcYw3cHvn5sNv75Xwz9+/5beMwzDMAzDMG8YFl4MwzAMwzDXBIcaGYZhGIZhrgn2eDEMwzAMw1wTLLwYhmEYhmGuCRZeDMMwDMMw1wQLL4ZhGIZhmGuChRfDMAzDMMw1wcKLYRiGYRjmmmDhxTAMwzAMc02Efo/XL6vfgsxW/9XeLW4ci92t976Mz3/1u/KcYRiGYRiG6SRUeP3i5Jv43Be/TUeiyKdKYYm9VF3t+49/+n28/7UiHTMMwzAMwzBBhIcapSSLFl0qn3YMwzAMwzCMlVDhpbRUHNH1KesuhmEYhmGYCEJDja8r38Tn/93/lI7CRZc4/tmfHeCv/QcHdBzEARaGVnH37AUWh3WS4HwTkyNPMetP7ymWtiM5x+bkCJaO9enEBs5eLMJu4rLtMMw7QnUfD3eB/FYOKZnQxNH6Ggo1eYJ0fgs5leEh6lTGsCUyZP2STE5mV7A8laCj7mxU9x9CmzBsEIG2RXJQ+RhtulzmmsPKWPp5s6linwZRvwxEEtmVZbydSxd9KcJ5a+37aB5hfa2M8X7pD3MthHu8Yni63GO7fAtheBEvLsKEihAzk9g816fXhRCEQyN4+fhCjoHc9oHnNl3JMDcaISQekvghEaFTFE3cyWxha4u2lSzqu/s0rZlQvWId2WmhOmjCkwJGlM/DKezhqKnKxLZBk1RjTJdts2GxbS0f1abgstcssJUR/aRrWRF5Zn8GASG21JjQkKCwd0Sj1C1CNK3frDFLTGF5i0XXoBHj6ySiRdflVFe/co7N3BJGixfYntFJAhKJi+Y5wwwMCUwt06SZG9PnLimkXE9O4g4cfdiieYKyk1GTSrWCUnpMe41SmKbJt3wiZtAubNAkNeWWpT45SX1os20rH9Wm5JLXLLGUaTZQT47jnpxkUxhL11AfGOHlkZjKIF0rQ778DDOARC+ujyW63H23mB4tEdobwtCQ2hYORF4GOzjG0gilLSh308GCV8ZN60B6rFSZyc1XOlFj5A0NLVAPfJw/x9PjeTwIEVmhfTgz2zZcdW3tiuvT6R3XrZMZ5l2iTfwomidlOGMqpdmoI+l4t/WJOw5qftURYaOdJuo1B3fIZCzbRvk2AtqMjVlXhBDXA7w4ZpnEPYzDFRxVVEppBF7agCHCwQ8f6m3f9R9qj6NO368Kb5cIV9ZQWPPKBdf1IcJ5usz6UUMnaoy8hw+DvJe2NpT3bX9/3avX1s6R4Z3ze+rMc/dYXW/bJZjvqbZ+muX846STmb4mRqiRtgjRdfHpb+ThxW9/ReeX5OAJlkaLsk2xbc/MYPuiiHlMYOOM0rT7aWbbDf9R3s5qQBiSBNuI8liJcvt4SuLNReSJNWXaRhFYDYpjTtzFiD4Mwt4HEomrwL7IO9sAlnI6r71PIu80owVnx3WL8gzzbtA8EhMP/dF313G1qOKw4MQSFpexUd3fRT07HVsw+cvb24wmTt3gMglMzZH0EsJBLhxz140NFs2jIkotzx+QyqkQpAi/pktFJUiqhyg4eZ0u1silkBP5bshSj2lg3TZI2KwV4ORVuTkSvt5aM5En1ldpG3mg2GkgpI0a6s4cpYvXMaydONB7I5NGqeIpp2qlhHRminLabavwtRZuHeOk6jL9TXSoMcrTReevGye4dfs9vP7Jd+j8kozcxcROpt1LFMTBgvYOCW9YAOevcDqxgUdawAwvPibxphF5rgdN2Mjs4Pjlmc40OH6JgFQPax9IJO7rBfjDi3g8fwxpXrZreNHMvLjXzTB9SGJqWf3RH6uQmDDu6quV2MKoOxvqDr/oxF2YHlze2mYMAuumcthaFpOkIrCM8FrsAXMinbaxyiB5KLSnisToGonpvDFW0rMjRKq5AD/hIFnaxXrUCxNU10SGd7OQywwJGeZUhyrP6Jf40EOnp5SwtpHEuKsew9qJS2qMhF2FZJagikpd25P9NLyjiSlk3DB13HFi+ooIj5f8SZtddIn0T379c3zBGccnr39MaZdELrQXHqqcFDWBITcRrsvQXQmVu7g4w8aETu+KeV1fb34X0/B9zE7s4Jkt5Be7D+d4daoPw4hz3QzT75DwyLfWLJHYKda9SYnwh//84UFJhA2ZppRLu4iy2g4u30Zbm10Sp65RRoRN6YJagiM11u7huNl4i+uVh0gjxKhw/sn0FWTddXhy0bnwHO1J0RMoUG11uyKt6+vN7zLqSRtxEesT69LrJryCdeO9YiXOODF9R8Qar2jRJfZCwNy6/Rm5vyrDiy9wRmrm9FWAB+jsJY7dMKBciyVT2xn+AKPHS3iiBcz55qrnlRJ5dBYYXmwxjMXH89jJ+EQQCa5NcR7ah2M8fa5tm2vFdLstMUe2Vnfa15GFXjfD9CPVqr47F4g1S0kovWMsiHeRd+be3fxhQWgQKtCNDRlW8aUJrLYt5W1txsFW11yPYykjBWL5RJUROZVSp/gcNJp11JKOEhjiNddfweEiPIcrpHbqjQB1G1FXIj7cUCvgUL8gMsypDlUenQWFF1vEaUMQ1g7VdpKGQBfr/vShn8S9caB8iMOyg4z7xtX9bGl0EoNF3/rA0HFi+o5wj5f8ES665F4ku3srRoiPto7QWit8N4SRpVE8lt8xMYMH88bi+plH2MASRkS53EuMBnqbZrBdVMJJ2Mph1gs1ijy59mqk1VbgAv2Zbb0OS5eR7QH3hVAK7cMERl8qz9WQXNO1TS0KVLste3Kdmc4LvG6GeQdINFCUIRgVhkFefSw+cEG8uDPPA7u+st3YEJ4slHZ1WbXJEIvFtr18cJuxiFPXViaVw8p4GWs6bxf5AfkerxBS08iioMZkr258UtUN76nQpBIh6pOgrcX1trptpJDLp+ltoGztYdwIAVKe/G6LtVZbHQv0Y7UhCGtHr9/SeZ1fUWIgP4BRQskxP/Ch+ll368t1adprGDhOTL8T+gWqH/8og/e/NE1HIaKL9o2PfoA7X/mG2n/9Q0pjGGYwqWJ/vYFpcw1P1/TCBsO8Teg93E9f1Mr0FdEerwjRpfJp19ozDDO40N35lQVTL2wwDMP0J6Eer5/9cEZpLgEduMeyivqv9xcYEv9ufxaJie/JMgzDMAwzmLDHi7ETKrwYhmEYhmGY3hH9PV4MwzAMwzBMT2DhxTAMwzAMc02w8GIYhmEYhrkmWHgxDMMwDMNcE6GL639Z/VbnJxhbH230jsXu1ntfxue/+l15zjAMwzAMw3QSKrx+cfJNfO6L36YjUUR8T5feS9XVvv/4p9/H+18r0jHDMAzDMAwTRHioUUqyaNHFX57KMAzDMAwTTajwUloqjuj6lHUXwzAMwzBMBNEerxiiS6WJcxsHWBiahP+52DjfxGRQek+xtG1FlNcPs9Zb0HO03wzd9pVhrofqvn5AL23yQdMGXt46fFki03vwsPFAX78NQfNoHQ/Xj9CRY9iw9sNiO6zfAmubLtLuPlTrBrZ0SRNH6167/ucuCyLbvVGIb3H3xiPwfXJtiL68zfZ9NI+w3k/9Ya6FcI9XXNFFx6G6y8bwIl5cvMDisD7v4G0JkQlsnIlHJKlte0YnW2HBxNxgaHJojG1ha0tseTiFvdZEIYRN0VnRef7Ho5AAKdaRnU7RMU14u0A+wIaiisNCTR+bGDas/bDYDum3wtamQIunCpDWKQpbukkTdzK63ZUs6rt+gRbW7k0lieyKGhMaEhT2LiM6+0w09YLEFJY7fm+Ym06Mr5OIFl2XU10Mw7wT0OQwJbSTJAEnqQ9pIqzUs5izzRrNE5SdjJpUqhWU0mNQZlKYpsm3fOLNoM2jIpDN0vTsw7Rh64fNtrXfCmubkgSmlkko5Mb0uYst3SSFlNtu4g4cfegS3u7NJzGVQbpWhvHyM8xAESPUGEd0uftuMT1F59icNMN7Ii+DHRxjaYTSdLzvYMEr46Z1IEOYqszk5iudqDHyhoYWqAdx0X3dXGi1Pyk7HtRPVXZhYbLVhrXfIX0NruMfJ53MMNdCE/WagzuumHLqOHRDSL7QWfOkDGdMKZBmo46k4wm0xB0Htbou3TzCXj2D3D11amLaaMfrR6jtFka/5am9zUshQo+BYVJTFBK9bvcGYIaDW2FpGsn2cK3wdu2ihBoKa1654Lo+aMzXdZn1o4ZO1Bh5ttBxcBvK+7a/v+7Va2vnyPDO+T115rl7rK637RLM91RbP81y/nHSyUxfEyPUSFuE6Lr49Dfy8OK3v6LzS3LwBEujRdmmCu/NYPuiiHk37KfjfTPbbgiQ8nZWA8J7JHpGljBaVOX28ZREkYvIe4pZN4xIN56rgfFBLaKkuDHFGaW/fKDrzuN46QnlBfdTlD29u09lt6mErd9hfbXU6RgnVZZhroPq/i7q2WlPSJTqcHQIKe8UsNeaXUQ4zUGgZmqDJo69MsZlONKP3UZHPyJoLx/WZm+Qa7jEZFgZw1bObefNt/suIDx+peQ47mkRnMqp948IB6dLRSVIqocoOHmdvoVcKoWcyHdDlnpMA+u2QcJmrQAnr8rNoUzizUXk0euh379kAsVOAyFt1FB35ig9R++rsHbikMBUJo1SxVNO1UoJ6cwU5bTbVuFrLdw6xknVZfqb6FBjlKeLzl83TnDr9nt4/ZPv0PklGbmLiZ2M9iKFcOB6nISXKYDzVzid2MAjLUiGFx+TKNKIPFNUZXZw/PJMZ5qYa7yUcFJQumt45gHZPcUra3cnMHvfWLwW1O+wvgqC6sQdJ4bpKerOWqznWjZDi2kdBiRSY2nP01StxBJGzaM9lMfngte4BNqw9MNKZ/nQNi9LKoetZTFJKhJTy2oyHKuQAFOT5Btp951Be6pIjK4VHOSNsZKeHemxER4tTcJBsrSLoA9EtBFU16TZQD2Zhat1ZZhTHao8o18Pd0sBnlLC2kYS4656DGsnLqkxEnYVklkCFcaX9mQ/094NSGIKmTSJPtHVuOPE9BURHi/5kza76BLpn/z65/iCM45PXv+Y0i6JXGgvvD45KTYCQ2giLJehuxIpiM6wMaHTu2Je19fbdbiMLtNvW50448QwPUWIlz1gbiu+2CnWvUmJ8If/VHiwIReZ1wpramKju/parYA1GV7ptGHrR7BtkR9UXi1sD27zDUCCLC8nyWtut+/wFtcrD5FGhNBaH4xYQdZd+CYXnQvP0Z4cr8AQmq1uV6R1fb35XUY9aSMuYn1iXXrdhFewPn7PE6c24owT03dErPGKFl1iLwTMrdufkfurMrz4AmekMk6DXElnL3E8cRcj4vj8OZ4ey9R2hj/A6PESnmhBcr656nmLRB6dBYcX3yC2fof1NeJaQ8eJYXqJDGd4nq0W8g7dDb0IoVRCWtyWmwviXeSduXc3f1gAiaop5MxJbyWLZDKLFeENCbJh60egbSoUWF6ErCxt6hKXwlyPU63qvgiqqJSScBJvqN13nWYdtaSjxkC85r4PewrP4QqpnXojQJ5G1JWIDzeQwD3UL4gMc6pDlUdnQeHFFnHaEIS1Q7WdpPZQCcS6P33oJ3FvHCgf4rDsIOO+cXU/W1FIEoPFkuEBI0LHiek7wj1e8ke46JJ7kezurZjrptyF6QatsNoQRpZG8Vh+x8QMHswbi9ZnHmEDSxgR5XIvMRroOZrBdnEeOxllK4dZI3xHeWcbIIOttoIX6Ef0tQNfP/1Y+x3SV1udwHFimDeH8CChtKs8NXpToQ0SEyvjKMtQzZpcayIcBoEL4sWdeR7YlfWFCyH8I/RBNqz9sNi29/sNk2ig2Goz+loHmtQ0sihgTYzVXt34pKob3lOhSSVCUhhLG4vrbXXboPdoPk1vA2VrD+NGCFC8f8V3W2gvpNj8LqNYbQjC2tHrt3Re6FeRJO5RzRJKjvGBDN3PultfrkvTXsPAcWL6ndBnNX78owze/9I0HYWILto3PvoB7nzlG2r/9Q8pjWGYwaSK/fUGpq/kyemFDYZ5m9B7+GERzgqLbqaTaI9XhOhS+bRr7RmGGVzo7vzKgqkXNhiGYfqTUI/Xz344ozSXgA7cY1lF/df7CwyJf7c/i8TE92QZhmEYhhlM2OPF2AkVXgzDMAzDMEzviP4eL4ZhGIZhGKYnsPBiGIZhGIa5Jlh4MQzDMAzDXBMsvBiGYRiGYa6J0MX1v6x+q/MTjK2PNnrHYnfrvS/j81/9rjxnGIZhGIZhOgkVXr84+SY+98Vv05EoIr6nS++l6mrff/zT7+P9rxXpmGEYhmEYhgkiPNQoJVm06OIvT2UYhmEYhokmVHgpLRVHdH3KuothGIZhGCaCaI9XDNGl0sS5jQMsDE2i41nT55uYDErvKZa2rYjy6iHU7hb4HO24XMs1MsybpbqvH9BLm/9B017eOjqeQS0e4us+eNh4oG/Qw6qbR+t4uH6EjhzDhrUfFtth/RZY23SRdvehWjewpWu67efNRnyLuzcege+Ta0P05W2276N5hPV+6g9zLYR7vOKKLjoO1V02hhfx4uIFFof1eQfdiqZeMYGNM/GIJLVtz+jkyxB5jW+btzXGzDsDTQ6NsS1sbYktD6ew15oohMAoOis6z/94lCaOinVkp1N0TBPeLpAPsKGo4rBQ08cmhg1rPyy2Q/qtsLUpoHbXSSRUgLROUdjSDUL7SdeyYuvPTSapr3sLK1mgsBcidq30mWjqBYkpLHf83jA3nRhfJxEtui6nuhiGeSegyWFKaCdJAk5SH9JEWKlnMWebNZonKDsZNalUKyilx6DMpDBNk2/5xJtBm0dFIJul6dmHacPWD5tta78V1jYlCUwtk1DIjelzF1u6ga3dZgP15DjuyeFKYSxdQ31ghJdHYiqDdK0M4+VnmIEiRqgxjuhy991ielvOsTlphvdEXgY7OMbSCKXpeN/BglfGTetAhvdUmcnNVzpRY+QNDS1QD7qgze6m0Xe/18g8Dzg+MO20KlmurbOOyDrfnGyVNW0EX5+2sbngqyPSO8e43YYZavW/RjqZGSCaqNcc3HHFlFPHoRtC8oXsmidlOGNKgTQbdSQdT6Al7jiouaqjeYS9ega5e+rUxLTRjtePUNstjH7LU3ubl0KEEANDlka7iXsYhys4SLSW0gi8tAHDDMu2wtI0btKzqNP3q8LbtYsSaiiseeWC6/qg13pdl1k/auhEjZFnCx0Ht6G8b/v76169tnaODO+c31NnnrvH6nrbLsF8T7X10yznHyedzPQ1MUKNtEWIrotPfyMPL377Kzq/JAdPsDRalG2q8N4Mti+KmHfDfjreN7PthgApb2fVEDsuJCZGljBaVOX28ZSEhYvIe4pZN4xIN7yrnQYILUSkwDDEi9VuN5DtVWBftH+2ASzlWtdgvzajTnEeO5kh5KgH6hrmcbz0xOij7frIxssHvjpBY9x+naKPpxktHDteI2mYGSCq+7uoZ6e1d4ko1eHoEFLeKWCvNbuIMJ4TQ1jQxLFXxrgMR/qx2+joRwTt5cPa7C3t7SYwNUfSSwgHEhHI52L3/yYhPI2llucPSOXU+0eEX9OlohIk1UMUnLxO30IulUJO5Lshy5waucC6bZCwWSvAyatycyR8SzpH5dH7QL9/yQSKnQZC2qih7sxRungdw9qJA703MmmUKp5yqlZKSGemKKfd9tZKFvVdLdw6xknVZfqb6FBjlKeLzl83TnDr9nt4/ZPv0PklGbmLiZ1Mu/cmiAPXayM8NQGcv8LpxAYeaVEwvPiYhIVG5JmiKrOD45dnOtPEXOO1TfKECLPbFWR7fxFyydfwIh7PH6PVBeu1GXVmHkihNHtfLxqT56d4JYYt9PrIhtt5s44faWMeD1xRZfYx7mvE3EDUnbVYz7VshhbTOgxIpMbSnqepWokljJpHeyiPzwWvcQm0YemHlc7yoW1ellQOW8tiknQJ6KfwWuwBc3qSHKsMkodCe6oePsRawUHeHKvWBw6ER0uTcJAs7SLyAwhBdU1keDcLV2PLMKc6VHlGvx7ulgI8pYS1jSTGXfUY1k5cUmMk7CokswQqjC/tyX4a3tHEFDJumDruODF9RYTHS/6kzS66RPonv/45vuCM45PXP6a0SyIXoQtPUk6KhsAwlgiBZeiuRAqiM2xM6PSumNf19fZW3TbneHXqHvbi2gRv8PrivEbMDUSICKkY4oudYt2blAh/+E+FBxtycXutsKYmNrqrr9UKWJPhlU4btn4E2xb5QeXVgvrgNntFcD9F2JQuqCU4hFA1PRw3G29xvfIQaYQYFc4/mb6CrLsejsTFMqXNYU++ToEC1Va3K9K6vt78LqOetBEXsT6xLr1uwitYN94rVuKME9N3RKzxihZdYi8m+Fu3PyP3V2V48QXOSHWcBrljzl7ieOIuRsTx+XM8PZap7Qx/gNHjJTzRouB8c9XzHok8OgsOL0YQZpd6dHfC9Fw9C/bGSY7x9LluX16D9i7FubYornJ9LtrGM1dUkSBc3TE8YEToa8TcPGQ4w/NstZB36G7oRQilEtLittxcEO8i78y9u/nDgtAgU8iZk95KFslkFivCGxJkw9aPQNtUKLC8CFlZ2tQlLoW5HsfSTykQyyctgSdCSebatIGkWUct6aixF6+570OmiallrJDaqTcCZHFEXUniDhwS1odakMgwpzpUeXQWFF5sEacNQVg7VNtJGh+kEGsj9aGfxL1xoHyIw7KDjPsG0v1saXQSg0Xf+sDQcWL6jnCPl/wRLrrkXiS7eytGCIy2jnBVK8w2hJGlUTyW378wgwfzup5wr8w8wgaWMCLK5V5iNNArNINtvQ5K2MphFl5IkPLkuqqRVlvBC/SD+hpmdxiLj728oWfC72RjAqMvlcdoSK6l0qHMWNcWRdzrM/GNsbZx6l6LXDOm+xj4GjE3HeFBQmlXeYj0pkIbJGJW3DVLa3KtiXAYBC6IF3fmeWBX1hcuhPCP0AfZsPbDYtve7zeLtd1UDivjZazptF3kY3oQbzCpaWRRUGOyVzc+qeqG91RoUokQ9UnQ1uJ6W9026D2aT9PLoWztYdwIAYr3r/huC+39FJvfZRSrDUFYO3r9ls4L/SoS+QGMEkqO+yldgepn3a0v16Vpr2HgODH9TuizGj/+UQbvf2majkJEF+0bH/0Ad77yDbX/+oeUNggcYGFoFXfPuvmOrsvUYZh3iSr21xuYvpIHqRc2GOZtQu/hh0U4K/wdXUwn0R6vCNGl8mnX2jMMM7jQ3fmVBVMvbDAMw/QnkWu8/vJPP8Rf/tkR7f8p/uKjf4a/+NM/RvMjsf1z6eFq/Ks/Ib11IfdDtz+rKzIMwzAMwzB+QkONDMMwDMMwTO8I93gxDMMwDMMwPYOFF8MwDMMwzDXBwothGIZhGOaaYOHFMAzDMAxzTYQurv9l9Vvq2+jVf7V3ixvHYnfrvS/j81/9rjxnGIZhGIZhOgkVXr84+SY+98Vv05EoIr6nS++l6mrff/zT7+P9rxXpmGEYhmEYhgki4nu83B/hoou/PJVhGIZhGCaaUOGltFQc0fUp6y6GYRiGYZgIoj1eMUSXShPnNsQzCifhfy42zjcxGZTeUyxtWxHlF+ine6wfFi23N91XhulPqvv6Ab20+R807eWto+MZ1OIhvu6Dh40H+gY9rLp5tI6H60foyDFsWPthsR3Wb4G1TRdpdx+qdQNbuqSJo3WvXf9zl8Pr3kTEcwu98Qh8n1wboi9vs30fzSOs91N/mGsh3OMVV3TRcajusjG8iBcXYQ+M7lY0vQkmsHF2IcfibANYym2CtRczUNDk0BjbwtaW2PJwCnutiUIIm6KzovP8DwQmAVKsIzudomOa8HaBfIANRRWHhZo+NjFsWPthsR3Sb4WtTYEWTxUgrVMUtnSTJu5kdLsrWdR3XZEVp+5NJYnsihoTGhIU9kLErpU+E029IDGF5Y7fG+amE+PrJKJF1+VU17vH8OJjzB8/xXNWXswgQZPDlNBOkgScpD6kibBSz2LONms0T1B2MmpSqVZQSo9BmUlhmibf8ok3gzaPikA2S9OzD9OGrR8229Z+K6xtShKYWiahkBvT5y62dJMUUm67iTtw9GG8ujefxFQG6VoZxsvPMANFjFBjHNHl7rvF9GidY3PSC+stHIi8DHZwjKURSlvQwb8Fr4yb1oEMYaoyk5uvdKLGyBtqhRQZholHE/WagzuumHLqOHRDSL6QXfOkDGdMKZBmo46k4wm0xB0Htbou3TzCXj2D3D11amLaaMfrR6jtFka/5am9zUshwoeBYVJTFDJBmOHgVliaRrI9XCu8XbsooYbCmlcuuK4Peq3XdZn1o4ZO1Bh5tvBvcBvK+7a/v+7Va2vnyPDO+T115rl7rK637RLM91RbP81y/nHSyUxfEyPUSFuE6Lr49Dfy8OK3v6LzS3LwBEujRdmm2LZnZrB9UcS8G+rbnpHFZrZV/oXI21kNCEOSYBtZwmhRldvHUxJvLiLvKWZ16JBMYLWLOOb55ip2JmZx3xoaZZibTXV/F/XstCckSnU4OoSUdwrYa80uIoznIFAztUETx14Z4zIc6cduo6MfEbSXD2uzN8i1Y2IyrIxhK/fm2nkXEZ7GUnIc97QITuXU+0eEg9OlohIk1UMUnLxO30IulUJO5LshSz2mgXXbIGGzVoCTV+XmUCbx5iLy6H2g379kAsVOAyFt1FB35ig9R++rsHbikMBUJo1SxVNO1UoJ6cwU5bTbVuFrLdw6xknVZfqb6FBjlKeLzl83TnDr9nt4/ZPv0PklGbmLiZ0MJqOE0MGC9lYJb1gA569wOrGBR0qnqfCgOlR5rgdN2Mjs4Pjlmc604ZUfWRpF8cUiWHcxg4e6sxbruZbN0GJahwGJ1Fja8zRVK7GEUfNoD+XxueA1LoE2LP2w0lk+tM3Lkspha1lMkorE1LKaDMcqJMBMb8egoj1VJEbXCg7yxlhJz4702AiPlibhIFnaRdAHItoIqmvSbKCezMLV2DLMqQ5VntGvh7ulAE8pYW0jiXFXPYa1E5fUGAm7CsksgQrjS3uyn2nvBiQxhUyaRJ/oatxxYvqKCI+X/EmbXXSJ9E9+/XN8wRnHJ69/TGmXRC60Fx6qnBQ5gVFEESbM0F2J8FZdnGFjQqd3xbyurzftSbPjLa6/uNhGVGmGuXkI8bIHzG3FFzvFujcpEf7wnwoPNuTi9lphTU1sdFdfqxWwJsMrnTZs/Qi2LfKDyqsF9cFtvgFIkOXdSXKg8RbXKw+RRoTQWh+MWEHWXXAnF50Lz9GefJ0CQ2i2ul2R1vX15ncZ9aSNuIj1iXXpdRNewfr4PU+c2ogzTkzfEbHGK1p0ib0QJbduf0bur8rw4guckaI6fRXg+Tp7ieOJuxgRx+fP8fRYprYz/AFGj5fwRAs3GR5UhyqPzroJLzLMwCPDGZ5nq4W8Q3dDL0IolZAWt+XmgngXeWfu3c0fFkCiago5c9JbySKZzGJFeEOCbNj6EWibCgWWFyErS5u6xKUw1+NUq7ovgioqpSSMJWiMSbOOWtJRYy9ec9+HTIXncIXUTr0RoFwj6krEhxtIWB/qF0SGOdWhyqOzoPBiizhtCMLaodpO0hDfYt2fPvSTuDcOlA9xWHaQcd+4up+tKCSJwWLJ8IARoePE9B3hHi/5I1x0yb1IdvdWjBAfbR0hxVYIUYX0HsvvmJjBg3ljcf3MI2xgCSOiXO4lRgM9XjPYLs5jJ6Ns5TDrhRpFnvxOiJFWW9YF+gzDSIQHCaVd5SHSmwptkIhZGUdZhmrW5FoT4TAIXBAv7szzwK6sL1wI4R+hD7Jh7YfFtr3fb5hEA8VWm9HXOtCkppFFAWtirPbqxidV3fCeCk0qEZLCWNpYXG+r2wa9R/NpehsoW3sYN0KA4v0rvttCez/F5ncZxWpDENaOXr+l80K/TiRxj2qWUHLMD2Softbd+nJdmvYaBo4T0++EPqvx4x9l8P6XpukoRHTRvvHRD3DnK99Q+69/SGkMwwwmVeyvNzB9JQ9SL2wwzNuE3sMPi3BWWHQznUR7vCJEl8qnXWvPMMzgQnfnVxZMvbDBMAzTn4R6vH72wxmluQR04B7LKuq/3l9gSPy7/VkkJr4nyzAMwzDMYMIeL8ZOqPBiGIZhGIZhekf093gxDMMwDMMwPYGFF8MwDMMwzDXBwothGIZhGOaaYOHFMAzDMAxzTYQurv9l9Vudn2BsfbTROxa7W+99GZ//6nflOcMwDMMwDNNJqPD6xck38bkvfpuORBHxPV16L1VX+/7jn34f73+tSMcMwzAMwzBMEOGhRinJokUXf3kqwzAMwzBMNKHCS2mpOKLrU9ZdDMMwDMMwEUR7vGKILpUmzm0cYGFoEv7nYuN8E5NB6T3F0rYVUd7+8OzzzUkMvak+xxmPaxkzhmmnuq8f0Eub/0HTXt46Op5BLR7i6z542Higb9DDqptH63i4foSOHMOGtR8W22H9FljbdJF296FaN7Cla7rt581GfIu7Nx6B75NrQ/Tlbbbvo3mE9X7qD3MthHu84oouOg7VXTaGF/Hi4gUWh/V5B92Kpl4xgYnT1YB2D/Bk6Vgfh3HJfkeOBxGnDMP0EpocGmNb2NoSWx5OYa81UQiBUXRWdJ7/8ShNHBXryE6n6JgmvF0gH2BDUcVhoaaPTQwb1n5YbIf0W2FrU0DtrpNIqABpnaKwpRuE9pOuZcXWn5tMUl/3FlayQGEvROxa6TPR1AsSU1ju+L1hbjoxvk4iWnRdTnX1N6OjwNPnPuV08Aw78/OY16cMMxDQ5DAltJMkASepD2kirNSzmLPNGs0TlJ2MmlSqFZTSY1BmUpimybd84s2gzaMikM3S9OzDtGHrh822td8Ka5uSBKaWSSjkxvS5iy3dwNZus4F6chz35HClMJauoT4wwssjMZVBulaG8fIzzEARI9QYR3S5+24xPUPn2JwcwpAI89G2cCDyMtjBMZZGvNDfwYJXxhYOVOE4VWZy85VO1Bh5Q0ML1INg7j56jNGlJ0Y+9W/1FBuPHuhzRWd/gvsd3K66/oUFEb4Uae2esuBrDRszWYBh3iBN1GsO7rhiyqnj0A0h+UJ2zZMynDGlQJqNOpKOJ9ASdxzUXNXRPMJePYPcPXVqYtpox+tHqO0WRr/lqb3NSyFCiIEhS6PdxD2MwxUcJFpLaQRe2oBhhmVbYWkaN+lZ1On7VeHt2kUJNRTWvHLBdX3Qa72uy6wfNXSixsizhY6D21Det/39da9eWztHhnfO76kzz91jdb1tl2C+p9r6aZbzj5NOZvqaGKFG2iJE18Wnv5GHF7/9FZ1fkoMnWBotyjbFtj0zg+2LIuYxgY0zStuekcVmtlX+hcjbCQ4HLowsYbSoyu3jKYkgF5H3FLPCnrBBN7yr1njgDB7M7+CZK2bOn5OlWdz3hfg6+xPU77B2j3F6d5/St6nFdiKvtWPMdDrDvCGq+7uoZ6e1d4ko1eHoEFLeKWCvNbuIMJ4TQ1jQxLFXxrgMR/qx2+joRwTt5cPa7C3t7SYwNUfSSwgHEhHI52L3/yYhPI2llucPSOXU+0eEX9OlohIk1UMUnLxO30IulUJO5Lshy5waucC6bZCwWSvAyatycyR8SzpH5dH7QL9/yQSKnQZC2qih7sxRungdw9qJA703MmmUKp5yqlZKSGemKKfd9tZKFvVdLdw6xknVZfqb6FBjlKeLzl83TnDr9nt4/ZPv0PklGbmLiZ0MJq1CSHOwoD08wqsUwPkrnE5s4JEWIcOLj73QoMhzPVHCRmYHxy/PdGYnM482cLq6CdGjgyck5h4vomNpVVR/BKHtTmDWr+ZcomzHHTOGuTLqzlqs51o2Q4tpHQYkUmNpz9NUrcQSRs2jPZTH54LXuATasPTDSmf50DYvSyqHrWUxSboE9FN4LfaAOT1JjlUGyUOhPVUPH2Kt4CBvjlXrAwfCo6VJOEiWdhH5AYSguiYyvJuFq7FlmFMdqjyjXw93SwGeUsLaRhLjrnoMaycuqTESdhWSWQIVxpf2ZD8N72hiChk3TB13nJi+IsLjJX/SZhddIv2TX/8cX3DG8cnrH1PaJZGLxoWHKifFRmDYTITrMnRXQuUuLs6wMaHTu2Je19dbmJto+D5m8RTPDzaxeuqJuRZd9aeLdgVxbMcZM4a5MkJESMUQX+wU696kRPjDfyo82JCL22uFNTWx0V19rVbAmgyvdNqw9SPYtsgPKq8W1Ae32SuC+ynCpnRBLcEhhKrp4bjZeIvrlYdII8SocP7J9BVk3fVwJC6WKW0Oe/J1ChSotrpdkdb19eZ3GfWkjbiI9Yl16XUTXsG68V6xEmecmL4jYo1XtOgSeyEkbt3+jNxfleHFFzgjlXH6KsCLc/YSxxN3MSKORegv6AOGwx9g9HgJT7QIOd9c9bxFIo/O7OFFP8NYfDyKpcwSMHu/09sVpz+Crtsl4tomQseMYa6KDGd4nq0W8g7dDb0IoVRCWtyWmwviXeSduXc3f1gQGmQKOXPSW8kimcxiRXhDgmzY+hFomwoFlhchK0ubusSlMNfjWPopBWL5pCXwRCjJXJs2kDTrqCUdNfbiNfd9yDQxtYwVUjv1RoAsjqgrSdyBQ8L6UAsSGeZUhyqPzoLCiy3itCEIa4dqO0njgxRibaQ+9JO4Nw6UD3FYdpBx30C6ny2NTmKw6FsfGDpOTN8R7vGSP8JFl9yLZHdvxQi10dYRHmuF1YYwsjSKx/L7EsQ6K2OR+swjbGAJI6Jc7iVGAz1MM9guzmMno2zlMOuFGkXe2QbIYKst6wJ9F9HmxLzujw9rf3z9vmy7UdcaOGYM01uEBwmlXeUh0psKbZCIWXHXLK3JtSbCYRC4IF7cmeeBXVlfuBDCP0IfZMPaD4tte7/fLNZ2UzmsjJexptN2kY/pQbzBpKaRRUGNyV7d+KSqG95ToUklQtQnQVuL621126D3aD5NL4eytYdxIwQo3r/iuy2091NsfpdRrDYEYe3o9Vs6L/SrSOQHMEooOe6ndAWqn3W3vlyXpr2GgePE9Duhz2r8+EcZvP+laToKEV20b3z0A9z5yjfU/usfUhrDMINJFfvrDUxfyYPUCxsM8zah9/DDIpwV/o4uppNoj1eE6FL5tGvtGYYZXOju/MqCqRc2GIZh+pNQj9fPfjijNJeADtxjWUX91/sLDIl/tz+LxMT3ZBmGYRiGGUzY48XYCRVeDMMwDMMwTO+I/h4vhmEYhmEYpiew8GIYhmEYhrkmWHgxDMMwDMNcEyy8GIZhGIZhronQxfW/rH6r8xOMrY82esdid+u9L+PzX/2uPGcYhmEYhmE6CRVevzj5Jj73xW/TkSgivqdL76Xqat9//NPv4/2vFemYYRiGYRiGCSI81CglWbTo4i9PZRiGYRiGiSZUeCktFUd0fcq6i2EYhmEYJoJoj1cM0aXSxLmNAyyEPBj6fHMSQ0OT8D83+80i+nSZNs+xOakeTC23yU1K6QPONzH5JsZQ2h2CfOkONq/5NWL6CvlA3n14jxFu4mhdP7iXNv/zhSWijpthPNDXe1h1dzaq+17ZtgdeB9q2lY/RpstlrjmsjKWfNxvxLe7eeDx8uI63d+miL2+zfR/NI6z3U3+YayHc4xVXdNFxqO6STGDidDVg4j7Ak6VjfdznSBEygpePxeOT9LYPPA/Wk9fL8CJeXLzA4rA+7xHnz4HHdJ0PnpHIzLzEBz22z7wLaCFRAdI6RdHEncwWtrZoW8mivmsKFAHVK9aRnU7RMU14u0BelN3Kwyns6cmmCxs0STXGdNk2Gxbb1vJRbQoue80CWxnRT7qWFZFn9mcQSOrr3gINCQp7RzRK3dJnoqkXJKawvMWPFRo0YnydRLToiqG6JKOjwNPnPuV18Aw78/OY16f9yzk2c0sYLV5ge0YnCUjwLJrnN4zhxUWIy5vZFkJzWx4zg0YCU8s0aebG9LlLCimhqQSJO3D0YYvmCcpORk0q1QpK6TGqIUhhmibf8omYQbuwQZPUlFuW+uQk9aHNtq18VJuSS16zxFKm2UA9OY57cpJNYSxdQ31ghJdHYiqDdK0M+fIzzAASI9QYR3S5+3DuPnqM0aUn8BxEJGZWT7Hx6IE+VxwsGKG8VnhShwYPVOhL5E0a7rPgOj502EzVfaUTNUbe0NCC0UfN+XM8PZ7HgzDl0WZDh+cknX0XeSrEqs69a/GHQM1zfby5EKNee0jU7Yt9nLosb71WZiBpEz+K5kkZzphKaTbqSDrebX3ijoOaX3VE2GiniXrNwR0yGcu2Ub6NgDZjY9YVIcT1AC+OWSZxD+NwBUcVlVIagZc2YJjh4FZYmkayPVwrvF27KKGGwppXLriuDxnOU2XWjxo6UWPktYeUPYLbUN63/f11r15bO0eGd87vqTPP3WN1vR1hafc91dZPs5x/nHQy09fECDXSFiG6Lj79jTy8+O2v6DyMGTyY38Ezd5IWYgazuO8LXynvitiKmN8xw5PHWFoF9kXe2QawlGvl2eu4kDAZUR4rUW6fWt7ROSqPenKmbRSB1U4DwMRdjOjDTtrti/6dZkwhZPS9OI+dzBBy1AvV3jyO2wRpGGTn5YOIekJEjeDp7JkqR5vrpQsep27LR10rMyg0j8TEQ3/0K2PYypkqoorDghNLWFzGRnV/F/XsdGzB5C9vbzOaOHWDyyQwNUfSSwgHEhHI5y4n+N5xmkdFlFqePyCVUyFIEX5Nl4pKkFQPUXDyOn0LuVQKOZHvhiz1mAbWbYOEzVoBTl6VmyPhW9I5Kq+McR0CJRModhoIaaOGujNH6eJ1DGsnDvTeyKRRqnjKqVopIZ2Zopx22yp8rYVbxzipukx/Ex1qjPJ00fnrxglu3X4Pr3/yHToPZ+YRTdKrakH6wROavB8vomPZ0IHr0ckY4kgwgY19XX54EY/nj/HyTGaE1NGcv8LpxAYeaUExvPjYC2+KPCFoRrQHJ7OD45Zhg+OXCEhVSBuGR8zfP7PvMw+o5ARmXcUpz0/xKpZwITvuRdjqae/c46AFX0Hj1HX5qGtlBoXE1LL6oz9WITFh3NVXK7GFUXc21B1+0VnBcqyFMcHlrW3GILBuKoetZTFJKgLLCK/FHjAn0mkbqwySh0J7qkiMrpGYzhtjJT07QqRKj5Ym4SBZ2kXkBxCC6prI8G4WcpkhIcOc6lDlGf16uFsK8JQS1jaSGHfVY1g7cUmNkbCrkMwSVFGpa3uyn4Z3NDGFjBumjjtOTF8R4fGSP2mziy6R/smvf44vOOP45PWPKS2C4fuYxVM8P9jE6qknhFqIEFaG7jykl+UMGxM6vYNzvDp1D+PWCWNe19db20IuQvR7wvDWvYt0O049GVdmICDhkW+tWSKxU6x7kxLhD//5w4OSCBsyTSmXdhFltR1cvo22NrskTl2jjAib0gW1BEdqrN3DcbPxFtcrD5FGiFHh/JPpK8i66/DkonPhOdqToidQoNrqdkVa19eb32XUkzbiItYn1qXXTXgF68Z7xUqccWL6jog1XtGiS+yFULl1+zNyH80wFh+PYimzBMze7/R2nb3EsRvSk54Ymao59hbnm2uuQutohj/A6PESnmjhdL656nlwRB6dBYYXW4h+qxBh+9KoTWyKc23DC6OSsNyJWBMWyAjuTpievGdeP+OiRWLH9djGqevyvbpW5p2mWtV35wKxZikJpXeMBfEu8s7cu5s/LAgNQgW6sSHDKr40gdW2pbytzTjY6prrcSxlpEAsn6gyIqdS6hSfg0azjlrSUQJDvOY1mdpCeA5XSO3UGwHqNqKuRHy4oVbAoX5BZJhTHao8OgsKL7aI04YgrB2q7SQNgS7W/elDP4l740D5EIdlBxn3jav72dLoJAaLvvWBoePE9B3hHi/5I1x0yb1IdvdxmHmEjQlLaEvkYQkjIryVe4nRNi/LBEZf5lToS64x0p+yC63jMoNtvbZK1M9hFt4nKSlPrhkb0WE12oJWi89s6/VMuoxsD7ivOiFttPLkmrHLfArQE3jSzjPhi+sWsvGiiFHjeuTlWMep2/K9ulbmnSbRQFGGYFQYBnn1sfjABfHizjwP7PrKdmNDeLJQ2tVl1SZDLBbb9vLBbcYiTl1bmVQOK+NlrOm8XeRjhktvMKlpZFFQY7JXNz6p6ob3VGhSiRD1SdDW4npb3TZSyOXT9DZQtvYwboQAKU9+t8Vaq62OBfqx2hCEtaPXb+m8zq8oMZAfwCih5Jgf+FD9rLv15bo07TUMHCem3wl9VuPHP8rg/S9N01GI6KJ946Mf4M5XvqH2X/+Q0t4E4lN7q7h71vvvqmI0IrRIghYbZ3jBg8xciir21xuYNtfwdE0vbDDM24Teww+LcFa6EPXMwBDt8YoQXSqfdq09884iv4S1iFFeJc9cGro7v7Jg6oUNhmGY/iRyjddf/umH+Ms/O6L9P8VffPTP8Bd/+sdofiS2fy49XI1/9Sekty7kfuj2Z3VF5l1EfWdXBrxYi2EYhmHeDKGhRoZhGIZhGKZ3hHu8GIZhGIZhmJ7BwothGIZhGOaaYOHFMAzDMAxzTbDwYhiGYRiGuSZCF9f/svot9W306r/au8WNY7G79d6X8fmvfleeMwzDMAzDMJ2ECq9fnHwTn/vit+lIFBHf06X3UnW17z/+6ffx/teKdMwwDMMwDMMEEfE9Xu6PcNHFX57KMAzDMAwTTajwUloqjuj6lHUXwzAMwzBMBNEerxiiS6WJcxviOYv6gcpym8Tmuc6Seeb5ddFtu6L8Av18RxDPXaSxlg+7Pth8C+PL3CSq+/oBvbTJB00beHnr8GWJTO/Bw8YDff02BM2jdTxcP0JHjmHD2g+L7bB+C6xtuki7+1CtG9jSNcHtNnG07qX7n8d8cxHPLfSuO/B9cm2IvrzN9n00j7DeT/1hroVwj1dc0UXHobpLMoGNswtp82wDWMpt4mZqgbclJNs5fw48prF+8IyEbuYlPuBnXjOXhSaHxtgWtrbElodT2GtNFEJgFJ0Vned/IDAJjWId2ekUHdOEtwvkA2woqjgs1PSxiWHD2g+L7ZB+K2xtCrRIqgBpnaKwpRtY223iTkanr2RR37ULt5tHEtkVde106SjshYhdK30mmnpBYgrLHb83zE0nxtdJRIuuGKqrjeHFx5g/forn7IV5YwwvLkI8cXFmW4jdbXnMMJeCJocpoZ0kCThJfUgTYaWexZxt1mieoOxk1KRSraCUHoMyk8I0Tb7lE28GbR4VgWyWpmcfpg1bP2y2rf1WWNuUJDC1TEIhN6bPXWzpBtZ2U0i56Yk7cPThoJGYyiBdK8N4+RlmoIgRaowjutz91VEPatabjJPJVOVF2lxo5U2aLiUdVnPzWtX8GOUmN1/pRE2bjaiQoq0/Ij2DHRxjaYTS3Y7YbLf1Z9PwlCn7CwuTrfLB4yI4x+akl+dmWcvHHSuGCaSJes3BHVdMOXUcuiEkX8iueVKGM6aURrNRR9LxBFrijoNaXZduHmGvnkHunjo1MW204/Uj1HYLo9/y1N7mpRChx8CQpa9dlzaxONiYYdlWWJrGrT0sK7xduyihhsKaVy64rg96rdd1mfWjhk7UGHm20HFwG8r7tr+/7tVra+fI8M75PXXmuXusrrftEsz3VFs/zXL+cdLJTF8TI9RIW4Touvj0N/Lw4re/ovNozjdXsTMxi/sB4S/loRFbEfM7q0bIjsTMywcqrziP46UnWsCQSBlZwmhR1zvbwGkmKNTXXm4fT0kguYi8p5jVoVBqGqudBnwE9WcG26Lfblh1W/iZbLbD+iM4xundfcpT3qrgcRGiawRPZ8903gVkk0Rw+bhjxTDBVPd3Uc9Oe4KhVIejQ0h5p4C91uwiwngOAjVTGzRx7JUxLsORfuw2OvoRQXv5sDZ7i7+fck2ZmCQrY9jKvfn2+xHhaSwlx3FPi9FUTr1/RFg2XSoqQVI9RMHJ6/Qt5FIp5ES+G7LUYxdYtw0SNmsFOHlVbg5lEm8uIo/eB/r9SyZQ7DQQ0kYNdWeO0nP0+oa1E4cEpjJplCqecqpWSkhnpiin3bYKU2vh1jFOqi7T30SHGqM8XXT+unGCW7ffw+uffIfObWgv0NAQRpZGUXyxiMBlRweuF0l4jkxIzDxyVcUDEjeneCUEw/krOprHAzeWNryIx/PHeHmmz11EuYkNuCZkuFMdahte/4YyOzjuMODH0h8/Ntth/ZFMYNZUpkHjcv4cT4/n8XgxYCQDy8ccK4bpQN1Zi/Vcy2ZoMa3DgERqLO15mqqVWMKoebSH8vhc8BqXQBuWfljpLB/a5mVJ5bC1LCZJl+B+JqaW1SQ5ViEBZnpBbjraU0Wic63gIG+OVeuDEcKjpUk4SJZ2EfSBiDaC6po0G6gns3A1tgxzqkOVZ/Tr4W4pwFNKWNtIYtxVj2HtxCU1RsKuQjJLoML40p7sZ9q7AUlMIZMm0Se6GnecmL4iwuMlf9JmF10i/ZNf/xxfcMbxyesfU5oNb3G9dc2RCINl6K5DljnDxoROvxbmdbt6c11HPeGKtrsdl7c6jszNQ4iIPWBuK77YKda9SYnwh/9UeLAhF7fXCmtqYqO7+lqtgDUZXum0YetHsG2RH1ReLagPbrNXxBgvEmp5d/IcCLzF9cpDpBEhtNYHI1aQddfDkbhYprQ57MnXKTCEZqvbFWldX29+l1FP2oiLWJ9Yl1434RWsj98zhLyFOOPE9B0Ra7yiRZfYCzFx6/Zn5P5KnL3E8cRdjIhj6c2RqeEMf4BR7OCZu1aJRMfqjuHVcRHljpfwRJeT4U512LIRHV68BDbbYf3xYxuX4fuYnQiwbS0fc6wYxkSGMzzPVgt5h+6GXoRQKiEtbsvNBfEu8s7cu5s/LIBE1RRy5qS3kkUymcWK8IYE2bD1I9A2FQosL0JWljZ1iUthrsex9bNa1X0UVFEpJWEsTRtMmnXUko4ae/Ga+z5kKjyEK6R26o0AhRpRVyI+xEDC+lAPvAxzqkOVR2dB4cUWcdoQhLVDtZ2kIbLF+j596CdxbxwoH+Kw7CDjvoF0P1tRSBKDxZLhASNCx4npO8I9XvJHuOiSe5Hs7q/CzCNsYAkjIkSWe4nRWJ6aGWzLtUo6lCfXUwV51KhccR47ulwOs0ZoT9nA0ogOz9F26VXnM3gwr0OL0obNdlh/fFjHZRiLL4oYNWwr07bycceKYTyEBwmlXeUh0psKbZCIWRlHWYZq1uRaE+EwCFwQL+7M88CurC9cCOEfoQ+yYe2Hxba9328Wez8bKLbSosdgIEhNI4sC1sSY7NWNT6q64T0VmlQiJIWxtLG43la3DXqP5tP0cihbexg3QoDi/Su+20J7P8XmdxnFakMQ1o5ev6XzQr+KJHGPapZQcswPXqh+1t36cl2a9hoGjhPT74Q+q/HjH2Xw/pem6ShEdNG+8dEPcOcr31D7r39IaUzXiPDgyEs8vsxXP8i6S8DGGV4ErfdimGujiv31Bqav5EHqhQ2GeZvQe/hhEc4Ki2umk2iPV4ToUvm0a+2Zy3DwZMkLD3bL8CJeXBQxyqvkmbcO3Z1fWTD1wgbDMEx/ErnG6y//9EP85Z8d0f6f4i8++mf4iz/9YzQ/Ets/lx6uxr/6E9JbF3I/dPuzuiITTfv3b2V25u2f9IxAfWdXBrxYi2EYhmH6m9BQI8MwDMMwDNM7wj1eDMMwDMMwTM9g4cUwDMMwDHNNsPBiGIZhGIa5Jlh4MQzDMAzDXBOhi+t/Wf2W+jZ69V/t3eLGsdjdeu/L+PxXvyvPGYZhGIZhmE5ChdcvTr6Jz33x23Qkiojv6dJ7qbra9x//9Pt4/2tFOmYYhmEYhmGCiPgeL/dHuOjiL09lGIZhGIaJJlR4KS0VR3R9yrqLYRiGYRgmgmiPVwzRpdLEuY0DLOhvaFfbJDbPdda1Ivqh2xbPN3xr/eglxjV1Rfs35w9NblJKD7nM+N6Y1+QGYjyM13zQdPNovZX+8OE+fI8YVvXcBw9bbLhIW+tH6MgxbFT33bZ8Niy2reU11jZdpF3fdUVch8RSJnK8biTiuYXuNYttHbZhe/OIvrzN9n00j7DeT/1hroVwj1dc0UXHobpLMoGNswtp82wDWMr1eKLvFvl8wxe4nmdKX1YcvSGkwBnBy8fq9ZDbPvD8QOf3gsuM77W+Jr2mz17jnkKT1S6Q39rC1lYeTmGvNVE06zWk8yJdbDmkVLKmiaNiHdlpkWq3oajisFDTxyaGDZqkGmNuW6YNi21reRdbmwJqd51EQgVI6xRF1HUILjteN5kksivquleyQGEvROxaoXG9aSIlMYXlLX6Q9qAR4+skokVXDNXVxvDiY8wfP8Vz9my8Bc6xmVvCaPEC2+ajHUn0LPKjHpkgqhWU0mNaJKQwTRNn+cSd/ZJwbJNG8wRlJ6MmlVAbQiMVgWyWrPkwbdAkNdVSKgk4bmGbbVt5jbVNSQJTyyQUcmP6XBNxHZLLjteAkJjKIF0rwz9sDDMoxAg1xhFd7v4yKE/BwsIkhoYW6IyQHhkvDLbQ5olpD5G18trqaDsCI31y85VOFJgeCn184JUVds83RZ/cuoZKDGxL29hc8NUR6Rns4BhLI5Tudth6jZbrM7FeE2EbB5fz53h6PB/+PG1r37oZJ3N8g64pKM2sQ0T1o2OsFeqh4XprVeqm70TgONraFendvMbvFs1GHUlDLSTuOKjVxazZRKNeQ2FNhZD8YbfmSRnOmJIfdhtE8wh79Qxy99SpiWmjnSbqNQd3yGSo7RZeeXVqbzMMa1sitKhDlpcdr0HFDAe3wtI0VtLjqNP3q8LbtYsS9PgFhJ69uj5kOE+VWT9q6ESNkWcL/Qa3obxv+/sidKzrtbVzZHjn/J4689w9VtfbdgnGe6q9n2Y5/zjpZKaviRFqpC1CdF18+ht5ePHbX9F5NOebq9iZmMX9VkjpGKd398nGNmbEJDaiPDIyBHa2gdOMOYGP4OnsmcqjTXltRJ2nmNWhzAu6kV11J0TD1j6e0uRogybNVWBf1p/HTmYIOaqh7M3jeOkJWRPY2hKQjZcPfHVmsE2F5t1Qq+xwyDUePMHSaFGl09bmlZKEXVNY3wwm7mJEH3YS0jdJ3HEyCLqmLq8zsB8dY62Y2dZ1xLjvrF6i72Hj2IPX+MagvUKBYTcRxnMQqJnaoIljr4xxGY70Y7dR3d9FPTutvUrRtJcPa/NNEjZeg4PwNJaS47intWkq541JulRUY1I9RMHJ6/Qt5FIp5ES+G7LMqdcusG4bJGzWCnB0eHcOZRJvLiKP3gc6BEomUAx4Qext1FB35ihdhIzD2okDvTcyaZQqnnKqVkpIZ6Yop9321koW9V0t3DrGSdVl+pvoUGOUp4vOXzdOcOv2e3j9k+/QuQ2asIQ3gO78R5ZGUXyxCG8pzwRmXRV2/gqnNIW1PDLDi3g8f4yXZ3SsvTWP/YuAZB3P/lBmB8eigkif2MAjbUuGONVhADRp7us+zTyQk2irT/L8FK/EpGlrS0I23MbMOn7CrnHkLiZ2Mu3eF5Owawrtm8HxSwSkKsL6Jok5TiZB1xTnOqP6YRvrA9cjJbxQJn3yGt9IUhhL17yQWrUSSxg1j/ZQHp8LXuMSaEPd4RedFSwHVvLTWT60zcuSymFrWUyScfGN143H8/StkZjOm2PV+iCC8GhpEg6SpV1EegWD6po0G6gns3A1tgxzqkOVZ/Tr4W4pwFNKWNtIYtxVj2HtxCU1RsKuQjJLUEWlru3Jfqa9G5DEFDL03pFdjTtOTF8R4fGSP2mziy6R/smvf44vOOP45PWPKc0GTViuB+FCeLZ6zTyK0rbeOl0oPeQNtkUT9AuyuY+cnPS7D09F9G34PmYndvCsa7tXIOiarnydFkR4L0N3rvL6z7AxodO75jrfT/2NP3TnD6WZODKWR2KnWPcmJSLYRkMubq8V1tTERnf1tVoBazK80mlD2l3fA+a22kSXvX9B5dWC+uA2o4kzFt2P1yDgLa5v+1CBCKG1PoiwgmxSp8tF58JztCdfp8AQmq1uV6R1fb35XUY9aSMuYj1gXXrdhFewPn4vWsjHGSem74hY4xUtusReTEy3bn9G7q/M8AcYhSEMaCJd3dGeAy0aOsJnuk5g+vESnmhbMsSpDi+Pra1uCLtGzfDiC5yRajj1u1PCrilW34ax+FiF2drEDvVhU5zH6NtlCbqm0Ou8TD/OXuLYDaVKD6lM7Y5Y4xjBGxzHa0feVXt34ocF+AQRQRNUsaQXjpsL4l0CbUwhZ056K1kkk1msCG9IkA0ZVvGlCWz9CywvQlaWNnWJUKxtGetxuh2vQaZZRy3pqLEXr7nvQ6aJqWWskNqpNwJkcURdSeIOHBLWh+rFkILG86pRHp0FhRdbxGlDENYO1XaS2kMlEB++0Id+EvfGgfIhDssOMu4bV/ezFYWU7x3DA0aEjhPTd4R7vOSPcNEl9yLZ3V+ZGWzL9TA6zCPX2rgeMhINL4oYXRpReS1PiaoDI10tcKZ0vZZHpOUwC3uoMS62tsKYwYN5Hbpy+2W7xlaYTIVkO8KqodcUs28z23rNkS4jthxwX3YgpG+XJeia4lznZfox8wgbWMKIqJN7idFLebxijmMbXbzG7xrirjoP7OpwC/Lux9/FwmCRpjxHjk4PXBBvtRFMkA3hOUJpV7WnNxlisdi2lr8Kca6jy/EaaFLTyKKANTEme3Xjk6pueE+FJpUIUeHZ1uJ6W902SGjn0/Q2ULb2MG6EAClPfreF9n6Kze8yitWGIKwdvX5L53V+RYlB4h7VLKHkuJ+KFah+1t36cl2a9hoGjhPT74Q+q/HjH2Xw/pem6ShEdNG+8dEPcOcr31D7r39IaQzDDCYkLtYbmO5qvZOfXthgmLeJENlFOCssrplOoj1eEaJL5dOutWcYZnChu/MrC6Ze2GAYhulPQj1eP/vhjNJcAjpwj2UV9V/vLzAk/t3+LBIT35NlGIZhGGYwYY8XYydUeDEMwzAMwzC9I/p7vBiGYRiGYZiewMKLYRiGYRjmmmDhxTAMwzAMc02w8GIYhmEYhrkmQhfX/7L6rc5PMLY+2ugdi92t976Mz3/1u/KcYRiGYRiG6SRUeP3i5Jv43Be/TUeiiPieLr2Xqqt9//FPv4/3v1akY4ZhGIZhGCaI8FCjlGTRoou/PJVhGIZhGCaaUOGltFQc0fUp6y6GYRiGYZgIoj1eMUSXShPnNg6w4D5sWG6T2DzXWdeK6Idu+3wTk2+tH73EuKZYXPK1EA+1ntzEOz9czOWRD+Tdh/cY4SaO1vWDe2nzP19YIuq4GcYDfb2HVXdno7rvlW174HWgbVv5GG26XOaaw8pY+nmzMR4OLrd1vL1LF315m+37aB5hvZ/6w1wL4R6vuKKLjkN1l2QCG2fisUMXONsAlnJveRIfXsSLixdYHNbnb5RuxdGbptvXgvq/ehdnLxZxLcPF9BlaSFSAtE5RNHEns4WtLdpWsqjvmgJFQPWKdWSnU3RME94ukBdlt/JwCnt6sunCBk1SjTFdts2Gxba1fFSbgstes8BWRvSTrmVF5Jn9GQSS+rq3QEOCwt4RjVK39Jlo6gWJKSxv8WOFBo0YXycRLbpiqK42hhcfY/74KZ6z++StE+u1OB/BIxZdA0wCU8s0aebG9LlLCimhqQSJO3D0YYvmCcpORk0q1QpK6TGqIUhhmibf8omYQbuwQZPUlFuW+uQk9aHNtq18VJuSS16zxFKm2UA9OY57cpJNYSxdQ31ghJdHYiqDdK0M+fIzzAASI9QYR3S5+8ugvEELC5MYGlqgM0KGAb1w2IJMdDnH5mRAXlsdbUdgpE9uvtKJAtMLpY8PvLLC7vmm6JNb11AmgW1pG5sLvjoiPYMdHGNphNLdDluv0XJ9JtZrImzjEAvLazEygpFL2WMGhjbxo2ielOGMqZRmo46k493WJ+44qPlVR4SNdpqo1xzcIZOxbBvl2whoMzZmXRFCXA/w4phlEvcwDldwVFEppRF4aQOGGQ5uhaVpJNvDtcLbtYsSaiiseeWC6/qQ4TxVZv2ooRM1Rl57SNkjuA3lfdvfX/fqtbVzZHjn/J4689w9VtfbEZZ231Nt/TTL+cdJJzN9TYxQI20Rouvi09/Iw4vf/orOoznfXMXOxCzut1woxzi9u082tjEjJv+RJYwWVSjs4mwDpxlXIAlRMoKns2cqj7btGZEu6jzFrA6fXRSBVVf0GLb28ZQEkA0SRqvAvqw/j53MEHJUQ9mbx/HSEy06bG0JyMbLB746M9imQvNueE92OOQaD55gabSo0mlT12cSdk1hfQsm+rXozh4zWDSPxMRDf/QrY9jKmSqiisOCE0tYXMZGdX8X9ex0bMHkL29vM5o4dYPLJDA1R9JLCAcSEcjnLif43nGaR0WUWp4/IJVTIUgRfk2XikqQVA9RcPI6fQu5VAo5ke+GLPWYBtZtg4TNWgFOXpWbI+Fb0jkqr4xxHQIlEyh2Gghpo4a6M0fp4nUMaycO9N7IpFGqeMqpWikhnZminHbbKnythVvHOKm6TH8THWqM8nTR+evGCW7dfg+vf/IdOrehPT5DQxhZGkWxLXQ1gVl35j9/hVOSKQ9cwTG8iMfzx3h5Rsfnz/H0eB6P/QuzZB3P/lBmB8eigkif2MAjbUuG1dRhACSM9nWfZh5IodTqkzw/xSuhOWxtSciG25hZx0/YNY7cxcROpt3DZhJ2TaF9M+nmtYhjjxlUElPL6o/+WIXEhHFXX63EFkbd2VB3+EVnBcuxFsYEl7e2GYPAuqkctpbFJKkILCO8FnvAnEinbawySB4K7akiMbpGYjpvjJX07AiRKj1amoSDZGkXkR9ACKprIsO7WchlhoQMc6pDlWf06+FuKcBTSljbSGLcVY9h7cQlNUbCrkIyS1BFpa7tyX4a3tHEFDJumDruODF9RYTHS/6kzS66RPonv/45vuCM45PXP6Y0G96CbuVN6TXzKErbeut0FfWQN9iWXPQvPFk5KXYCQ42hxOlbN6/FdY4r885CwiPfWrNEYqdY9yYlwh/+84cHJRE2ZJpSLu0iymo7uHwbbW12SZy6RhkRNqULagmO1Fi7h+Nm4y2uVx4ijRCjwvkn01eQddfhyUXnwnO0J0VPoEC11e2KtK6vN7/LqCdtxEWsT6xLr5vwCtaN94qVOOPE9B0Ra7yiRZfYiwn51u3PyP2VGf4Ao9jBM1dwnG9idUd7h4bvY3ZipzPcpesEph8v4Ym2JcNq6vDy2NrqhrBr1AwvvsDZxgRO/S6zsGvqRd9Mem2PuVlUq/ruXCDWLCWh9I6xIN5F3pl7d/OHBaFBqEA3NmRYxZcmsNq2lLe1GQdbXXM9jqWMFIjlE1VG5FRKneJz0GjWUUs6SmCI17wmU1sIz+EKqZ16I0DdRtSViA831Ao41C+IDHOqQ5VHZ0HhxRZx2hCEtUO1naQh0MW6P33oJ3FvHCgf4rDsIOO+cXU/WxqdxGDRtz4wdJyYviPc4yV/hIsuuRfJ7v7KzGBbrnnS4S25xsj1ygxj8UURo0sjKq/lEVJ1YKSrReyUrtdribQcZr2w3KWxtRXGDB7M65Cd2y/bNYrvy9J2RRiwI6waek2X6VsYvbbH3CgSDRRlCEaFYZBXH4sPXBAv7szzwK6vbDc2hCcLpV1dVm0yxGKxbS8f3GYs4tS1lUnlsDJexprO20U+Zrj0BpOaRhYFNSZ7deOTqm54T4UmlQhRnwRtLa631W0jhVw+TW8DZWsP40YIkPLkd1ustdrqWKAfqw1BWDt6/ZbO6/yKEgP5AYwSSo75gQ/Vz7pbX65L017DwHFi+p3QZzV+/KMM3v/SNB2FiC7aNz76Ae585Rtq//UPKY1hmMGkiv31BqbNNTxd0wsbDPM2offwwyKclS5EPTMwRHu8IkSXyqdda88wzOBCd+dXFky9sMEwDNOfhHq8fvbDGaW5BHTgHssq6r/eX2BI/Lv9WSQmvifLMAzDMMxgwh4vxk6o8GIYhmEYhmF6R/T3eDEMwzAMwzA9gYUXwzAMwzDMNcHCi2EYhmEY5ppg4cUwDMMwDHNNhC6u/2X1W52fYGx9tNE7Frtb730Zn//qd+U5wzAMwzAM00mo8PrFyTfxuS9+m45EEfE9XXovVVf7/uOffh/vf61IxwzDMAzDMEwQ4aFGKcmiRRd/eSrDMAzDMEw0ocJLaak4outT1l0MwzAMwzARRHu8YogulSbObRxgwX3Ist6in7Us6kxi81yfdot42PTkJqzVzzcxeRX7km77eMVrYpi3iXwg7z68xwg3cbSuH9xLm//5whJRx80wHugrH1Yt6c5Gdd8r69kgAm3bysdo0+Uy1xxWxtLPm434FndvPB4+XMfbu3TRl7fZvo/mEdb7qT/MtRDu8Yoruug4VHdJJrBxJh47RFtxHjuZBZIhV8UmZCh99S7OXixiWKd0MLyIFxcvsGgtwHTSL8KRBez1ooVEBUjrFEUTdzJb2NqibSWL+q4pUARUr1hHdjpFxzTh7QJ5UXYrD6ewpyebLmzQJNUY02XbbFhsW8tHtSm47DULbGVEP+laVkSe2Z9BIKmvews0JCjsHdEodUufiaZekJjC8hY/VmjQiPF1EtGiK4bqamfmAeZxildvauI8H8GjMNHFMEwXJDC1TJNmbkyfu6SQEppKkLgDRx+2aJ6g7GTUpFKtoJQeoxqCFKZp8i2fiBm0Cxs0SU25ZalPTlIf2mzbyke1KbnkNUssZZoN1JPjuCcn2RTG0jXUB0Z4eSSmMkjXypAvP8MMIDFCjXFEl7uPycEz7EzM4r6rjGTYzw1DBnvCDhaMUKWMUwqvRwY7OMbSiJtGCFsjIxjRZb2QpvKSLCxM6jZ8XpO2PoSEQo1yk5uvdKImxnVY6ah7js1JXz+M8GnneAj0NR14tkTW+aa4ZnU+abqJAvurbWxSW211gse7X/rRbiPk9WPeDG3iR9E8KcMZUynNRh1Jx7utT9xxUPOrjggb7TRRrzm4QyZj2TbKtxHQZmzMuiKEuB7gxTHLJO5hHK7gqKJSSiPw0gYMMxzcCkvTSLaHa4W3axcl1FBY88oF1/Uhw3mqzPpRQydqjLz2kLJHcBvK+7a/v+7Va2vnyPDO+T115rl7rK63Iyztvqfa+mmW84+TTmb6G/F1Ejb+7/8jc3HR3L64aPzPtP1PtP2PFxf1Ldo2afsfLi5q/5i2//7i03/z+xfN//3vXHz6m1/qmn6KF/NKqaltvqjTBSJv4mLjzD2dv5iQJ770Fma6v4xqp2X+bONioq0stG33vD0vuJ5Je7mzjQm6HktfWtdh4ivTwlKX9uZYFeeNPrYw66r+YWLjQp1SffOa5fk8lZInlv5qG25DYXXaeJv9UGVbY2N9/ZircXLxB7/3B/TTo/Hh71/83u/93sXv/YGZKmgvK8r9/ocNfUac/EGrTlwbJid/8Hste2G2XczyAnubfmJes2jz9z+8cFuw2m98ePH7Ip22yKZvDGIMf//CHX45NsZYeRjlAl5Dv512bHki3Rtr9bq45Xx1qM2291EHZnll1yvfRTsddvSx75rFe1adtttW76HgOsy7QXSoMcrTReevGye4dfs9vP7Jd+jchl7jdbaBiZ1n2qtBnL/Cqeu9EN6KzA6OX57pTAPh7ZHeDOHtsCBtzePBjD4fXsTj+WN45iYw23KzGUTW04hyExt4pMsNLz6mWpq41xGEra4IybbG6gDPTr227eNB47yvw6wypGtcsxniDe0v2XAbigoL90M/pI0Yrx/TcxJTy2ot01iF7riNu/pqBfXsdCxPUnc21B1+0VnBcqyFMcHlrW3GILBuKoet5Sm4LQSWEV6LPWBOpNM2VhkkD4X2VD18iLWCg7wxVtKzIz02wqOlSThIlnYR+QGEoLomMrybhVxmSMgwpzpUeUa/Hu6WAjylhLWNJMZV3Di8nbikxpAuVZT3jH5W6tqe7KfhHU1MIeOGqeOOE9NXRCyulz9ps4sukf7Jr3+OLzjj+OT1jyktApoU9zdOsWqGmmjSLJJNEoJq23ZnUI0II2Wgy5xhY0Kn9x0R1xFKUN0ZPNJjdb65itPZ+0rI9Gw8rtJfol/6wbx9SHjkW2uWSOwU696kRPjDf/7woCTChkxTyqVdRFltB5dvo63NLolT1ygjwqZ0QS3BkRpLo1QZFOXlLa7f2sp5YlqI0dYHI1aQddfhyUXnW5jDnhQ9gQLVVrcr0rq+3nKtnil60kZcxPrEOookoppHRdSN94qVOOPE9B0Ra7yiRZfYi8ny1u3PyH0chKdodCmn1lcNf4BR7PiEmI+zlzieuIsRcXz+HE+PZWon2tYz151GwmB1x/CE2IhbT5Q7XsITXU6IoZaXJ8512AipO3x/Fnj6BE+ejuKx+xHMuOMRxlX669Iv/dA2un7dmatRreq7c4FYs5SE0jvGgngXeWfu3c0fFoQGoQLd2KgeouBPE1htW8rb2oyDra65HsdSRgrE8okqI3IqpU7xOWg066glHSUwxGtek6kthOdwhdROvRGgbiPqSsSHG2oFHOoXRAgaz6smPvhQkkLHSpw2BGHtUG0naQh0se5PH/pJ3BsHyoc4LDvIuG9c3c+WRicxWPStDwwdJ6bvCPd4yR/hokvuRbK7j4Xw5ABLObFQfAbbZ+JkRIesaPOvjJ55hA0sqQXzuZcYbXlWZvBgXoepZB1l6zSj7Yw8xezZNqVGEbcelZNfhaHK5TCLVqhR2wi9DokRVqNNLRgPqTt8n1rZwc7oA68/1vHohrj9NfGNd7/0Q9vo/nVnrkSigaIMwagwDPLqY/GBC+LFnXke2PWV7caG8GShtKvLqk2GWCy27eWD24xFnLq2MqkcVsbLWNN5u8jHDJfeYFLTyKKgxmSvbnxS1Q3vqdCkEiHqk6CtxfW2um2kkMun6W2gbO1h3AgBUp78bou1VlsdC/RjtSEIayeBqYyX1/kVJQbyAxgllBzzAx+qn3W3/loZ4yvaaxg4Tky/E/qsxo9/lMH7X5qmoxDRRfvGRz/Ana98Q+2//iGlMQwzmFSxv97AtLmGp2t6YYNh3ibi04pFOCtdiHpmYIj2eEWILpVPu9aeYZjBhe7OryyYemGDYRimPwn1eP3shzNKcwnowD2WVdR/vb/AkPh3+7NITHxPlmEYhmGYwYQ9XoydUOHFMAzDMAzD9I7o7/FiGIZhGIZhegILL4ZhGIZhmGuChRfDMAzDMMw1wcKLYRiGYRjmmoi1uP6P/vAPUa78n/osmN/9e9/GePpv6zOGYRiGYRjGTyzh9feXH+E7/90/0med/Lf/4O/LPYsvhmEYhmEYOz0LNT74u7+LP/onf4hyKdwzxjAMwzAMM6j0RHj9e2PjePa9P5LHQnwxDMMwDMMwnQQKr//4v/4RnP/sj1vb3p/P4G/8F3/S2qb/QVmXVPwnf/d3ZSjSHo48wMLQAv10j/XDjPWmHhRt52ChvXxkvYOF4DK2dBuyvNtvTTc2wsoG2bYRUNYck1jX2E2/Cc/+JOzFO1/Ljudb264z7vVf5npi2Y7R915zvolJs81J8ZD4dwj5QN59eI8RbuJoXT+4lzb/84Uloo6bYTzQVz6sWtKdjeq+V9azQQTaDimvaR6t4+H6EfXCgu+aZXltz9vMMTHw1W1hS7+xiG9xbx+zoNdi8BDjso7uhkKPZeAvivv+1DabR1jv2v67i/m7HPZ7GvU3ofN10X+j5Jh3vpctL0UogcLrX/zr/1cfBfPyz8Pzo5nAxpl4BJHYihhdGsFQyKw3s+2VnTfqvlgc1iVMaELNAMWW7ZwWDiL9VNc104M4x+YkTYzPQO0ZiIkz0HYQtn5YbAdi78erB2oM2mzb+tdVv4VuGcLq3TNt/wUCh7mF8VoW57GTcQWP7Tq7uf6w1/KqYyuw9f0NIF6DkaeYbb3vL1AcfYkznd3f6D88FSCtUxRN3MlsYWuLtpUs6rt+MUH1inVkp1N0TH+wdoG8KLuVh1PY03/YurBBE0ljTJdts2GxbS3vUsVhoaaP/QRfc2JqWdtT20o2iWR2GuIKPezjFZw+CCSRXTFfizWreOh//BPzdUPvuXoxoH3f+zkxheWtQXlkUfu1W39PI/8mdFLdX0N5fAVbOfe33HgvB/7NisYaavyH//kINv+r38HE7/xV1P/X/0juxblId/k7/+RXbdvlmMH22QYmdp71ZtI7eIad+QdkVTCDRxvA0+c0K5+/wunELO5LETGDB/PHeGmd9Yax+IImx+0H+lxx/vwpsPGo03YQtn5YbAdjKTu8iEVlmBjB3Ql1ZOtfV/2mV+HZ6Qb2w9VWMDMPSPCc4pU0bbvOLq7fNoY9GVsfbX3vNSQIc0sYLbaL2JntbX0N/U4CU8v0RyY3ps9dUki5f4sSd+DowxbNE5SdjPrDX62glB7TAiWF6SxQPhF/8bqwQRPJVEvhJOAk9aHNtq28pnlUBLJZ+jMahO2aTcQfeweZjpnNVjeOzUEghRxNWMlSpesJi1E49Iuifn8M5O9BegBFfdTvsvF7GvE3wY/wnO0ij+WO33GN/JtVRyNCvPmxCq/jf/n/4G996d+h7a/I84m7X8Bf/2v/tkx3+fDv/ZW27dIM38fsxA6e9UB5nb86pb564nD4g1EcC4Ul2sBTKL1B4mJnHg/e4Kxn7UfPOcPL41F8cAmdFIgQNaMv8eQy4TBRtyVur45tDN/I2Pr7LjxUrbCg8IQpb1qbY1aENOOMz/lzPD1+s++3t06b+FE0T8pwxlRKs1FH0vH+eCXuOKjVgyYOu412mqjXHNwhk7FsG+XV6RH26hnk7unzy0D9rbveLhE+DAtZMu0k7mE8WULFVV4yLKZCN53hG+0pbMvze53Mc31c9WyKOmb4qS3E1Na2673QNo78IWyRvosSaiisUbrb0dD+Gxjl1o8aOlET1wbhTGfgFA51XwWuZ9gU9f4xuqHQuIX+Lpu/p234/ib4OdnHWnkcKy1PVwDyb5a+MewCq/D6Fz/9Jf7W3/grNMH9VRyWfiY9Xv/h73xBpruM/cP/q23rb4axuE/Sa0RMpCJO1b23QU7wS0+0Z+4cz58ey6O3ycFCBqfam2XrX9f93jnFXR0SK44uIRcWl8QxluSY0vbsAS5eLNJIvyvY+n6ABTMsSDdTq5vA4uN57Bh3BwfPdjD/OOb1TtyFKxXPNye1oAtbP/du0JrMKmOGK16g7jIDNZOPy9io7u9a/pgG016eJqm9MsZlCPSyqIlu/F6Xf3GZAEggrBXg5LeM8I0rGITo0qEeHTYKmwc9SBjR7+2cqJNPo7T7EHuYUzbovFZwRYtom94LbugoT1NDS6mQjTq9J9vqpJCjQmk33CQ7E9Z/k/ZycyiTgHOJa8MlhbG0KVxPyNo4Bu/tGPW7bP89Df8bQq99oYR0ZgqdNbXoFn+zxBKHeG/INqzC68//8tf4Nz/7NabTfw3/y8GfS9ElzkW6S+W/+Ztt29WYgHRidHgaQui2bA7Y1+trHjzT3otubMxs42zjFBlZNoeXo26MrwsbNrq2oTwwYi1Wa62brX/d9nv+cSskNvNgXnmTrP3T66SuGi7uxRh2jaXvIixtirLMjhoDEY5slVMh2Udx1fuxt55rePEFvQfFesV3n9ZairEK/SEyJgrrXWYn3dkQE/FDFJ0Vu/u/jc7yzaM9msjnrrb2xQyBClI5bC0H/ZFm7CQhHZXNBuokZVoCOzGFTLoG6bQU41xLB4RzoyBhNKdfj9SYFEqtyVee6/CQbNucSEuGt5RsuBO6WcdPWP9NRLlkFq7JxFSGamni2jBITZM4Kyova/WQRFugSLjZRP4u+39PJXH+htBrn7eJX3ONl4PiJbyKVuElOP3pr/CL/++3OP6XP5eiS5ybmJ90FNulkaEYHS4bXsQLLY4uLiK8UgFl/WEnNywl1znN3m95J4SgkN6Lbtoj1KQpyr7AA5qcR0Wnu+iHla76IUSXVJEdHzAI7J8t/Ypj3Qbl75O4W72sC6eLMex6bKMI7Pu8Xryvt23RI7GeTJU731zFqfF+CmX4A4y+sfVjfQIJj3xroui8y/SH//zhQUmEDfUHc0+4Mdr+YNptB5VXi3BrYnG3mGjXCqjVCljrMkxoD4EysZCCKiTMc62k9Qcz9HYJD8ZbQYRrUcZJ9QjFuifoBofo3+XO39PgvyGBkPhdzjskykMWz8uQebhADiJUeM394yr+5n/5v8njf3/xWJ6b/Os/+HrbdjlEWEcsPI4SGzEZuWt4Lw7wZEnorWE1WT99TpJFIcJEV5qsDxaQCfN4WPrREw6eYGnU80oFYutfVL+lV2fV+5Tg6g7mYy5OGl58HPmJya6wjeEbGNu2vkuhtBMoIofvzwJPn+DJ01E8Dn0BTNQHAJZGrsuTd01Uq8YfpCoqJdeDEXCXmXCMxdTiDyaUqOrGRvUQhY67V8JqO6i8CBUZk6xY5J3MYqUrb1UT9Pdc9dOF13h1gRtWyylvplyg3L7eq1jS3h+9FswL/7mIhdHGhCfW2ujDrtBtd9rvgrD+m4hyJAwOdTmxILzV57g22khgKkPCYFe+4SPevzTmLc+M7fhdI+p3Oej31PI3xAbdDK5k69i1/W7LGwj9N6sLAoXX3/obn9VHwdz96+H50RhhnKFVuZ5IOhR6gfCcFKHDamItl/4kmQi3zT7FiA5nZVC0fB1FGCQSdX1lOmR9j60fPUB4eLCTUf3Qm/ouK1v/uug3iYTtM3ct3AgJvGIXr40WGLkefT+VbQzfyNiafVeftKU3qRozsbmr6uWHNHawM+p+qjIe0uPY6rPq9+nGfs/eE2+FRANFcacpN7HYQX10PdAbJO8egV1f2W5sCE8WSru6rNrkgmeLbWv5KxOxKJcJwAjnPSzCWTHXaqlPOdZ3db5cc6VFmRAX9OLKr5/Qr+G+FCdCdKi1WzL90l/RodqmzrXsR3/NhVhfpa9Hlg3rvwmV0+vNRLk9jBt9jmvDR2oa2eRlQrGDQOfv6WX+JoilEHnH9KQZ72X5OnX/lR09eVajiXhu4z9af6LPGIYZLOgOer2B6Sutd+qFDYZhmP4kNNTIMO8+hrevtfUy5Pem7b9r0J37lQVTL2wwDMP0J7E8Xn/0h3+IciXew6/Hx/42fvfb39ZnDMMwDMMwjEss4cUwDMMwDMNcHQ41MgzDMAzDXBMsvBiGYRiGYa4JFl4MwzAMwzDXBAsvhmEYhmGYa4KFF8MwDMMwzDXBwothGIZhGOaaYOHFMAzDMAxzTbDwYhiGYRiGuSZYeDEMwzAMw1wTLLwYhmEYhmGuCRZeDMMwDMMw1wLw/wM1QsVrIy5v2gAAAABJRU5ErkJggg==;" vertex="1" parent="1">
          <mxGeometry x="3230" y="1239" width="606" height="249" as="geometry" />
        </mxCell>
        <mxCell id="hAGfu4WVWiaM9kF5Nsgz-6" value="" style="triangle;whiteSpace=wrap;html=1;fillColor=#ffe6cc;strokeColor=#d79b00;" vertex="1" parent="1">
          <mxGeometry x="1690" y="1314.5" width="60" height="80" as="geometry" />
        </mxCell>
        <mxCell id="hAGfu4WVWiaM9kF5Nsgz-7" value="Interface Principal" style="whiteSpace=wrap;html=1;aspect=fixed;fillColor=#ffe6cc;strokeColor=#d79b00;fontStyle=1;fontSize=15;" vertex="1" parent="1">
          <mxGeometry x="1410" y="1220" width="250" height="250" as="geometry" />
        </mxCell>
        <mxCell id="hAGfu4WVWiaM9kF5Nsgz-8" value="" style="triangle;whiteSpace=wrap;html=1;fillColor=#ffe6cc;strokeColor=#d79b00;rotation=90;" vertex="1" parent="1">
          <mxGeometry x="3460" y="1519" width="60" height="80" as="geometry" />
        </mxCell>
        <mxCell id="hAGfu4WVWiaM9kF5Nsgz-9" value="Roda o Script que adiciona o conteúdo do documento&amp;nbsp;" style="whiteSpace=wrap;html=1;aspect=fixed;fillColor=#ffe6cc;strokeColor=#d79b00;fontStyle=1;fontSize=15;" vertex="1" parent="1">
          <mxGeometry x="3365" y="1618" width="250" height="250" as="geometry" />
        </mxCell>
        <mxCell id="hAGfu4WVWiaM9kF5Nsgz-10" value="" style="shape=image;verticalLabelPosition=bottom;labelBackgroundColor=default;verticalAlign=top;aspect=fixed;imageAspect=0;image=data:image/png,iVBORw0KGgoAAAANSUhEUgAAAecAAADZCAYAAAAaCvg9AAAAAXNSR0IArs4c6QAAAARnQU1BAACxjwv8YQUAAAAJcEhZcwAADsMAAA7DAcdvqGQAABweSURBVHhe7d1/bNv3nd/xl9r0nLvEiZq0dbMf1wMtRSvnOwyqx7TyrRiGUT5bh0M0RPnrALHXTT8MTObQUw8E8tdgTLsJ3WjdH5Q1DKAwoBisofIfkw1L8O5Xo1uYRHdoDXayZSHZpbv4esnRjdMkbVbv8/l+PyS/pEiKkijrK+n5ABh9f/NLyvm+vu/39yuy7cSJX3ugkPnU0SP6xc8d1Qd//Z5+9t5H3rRPHnlEj/3ddn1U+Ik+evcn3rTt+vjjn5rHx27sYTiqp/7+Z/SLP/kb/fCd99y0Gh55Wp975pf0wV/9pd57mLtnPPbYY3r//ffd2N75wjPP6XM/W9Orf/OOm1L0tP7BL3fo6E9qzWvk1/SFf/rL+oV38rr9/XUzHtHnT0V19Mdu/NiX1fnFI/rRH/2xCv4KtdVabtN1q587yN+PI2//D715v7ydD3/1tCJH/kr5177nlqvj0RN6IvKEPlpf1kcfmvFPd+upZx7Xx+/+b/347b/2xz/zUxVu39TPvRUi+qXo5/X/3PKPfOGrekJv6d03zX5523pKj/zs3cDy9T1q9/GJe1p/+X/pQ/caH9N7+r/uffDmP/1habyxqt+H037yN/V39H8avA/2eZ/RRz+4rrfvuknB9/SOP8Xbl+L76f2+PqOf/mVxvr/vKo37PvPF59T1lPS3t15R/kduIvAQfPih/Z9ZamtrU9sDwxsDAAB7orOzUx988IEXzNYnvP8CAIA9V6yXCWcAAEIg2MgmnAEACBEb0oQzAAAhQVsbAIAQaXlbe2FhQf/ihRc09m9+100BAADbtaNwfvfddzU0NKR/9+8v6Dd/N6vv/flrbg4AANiuHYXzN77xDX35d/6jvj65pP/2R2/r05/+tJsDAAC2Y0c3hH3ta1/TPxn+A2/44h9kvZ+f+tSn9KMf8ZE6AACf92lXTTzCxu7T66+/7sY2svN2c7+3Fc72U0zW1la94X/7zaSO/epv6MH3LumTn/ykPvvZz3rTm7Omi6cCv6BTF82UHVi7qFNtp3RxRxvxXRs2+zN8zY21WAv3EwDCzlaCjR5h9Nprr+krp369ZkDbaXaeXaaVgu/HtsJ5eHhYX5tc9Ibf/NP/4v3821t/qKmpKW+4KV5AdSr/UuCXNCst7CQPO87r5Qcv63yHG98us28Xbg5p6OaF3QnQVu0nAGBXfOlLX9KfvfzdDQFdDGY7zy6zW7Ycznfu3NH3v+9/GP3Xv3JU8Ynb3nBHR8cWqmZTMQ8mdeLqA1064yZZJrTOB8f3yNrCZenFcY2/KF1eoLwFgMOoOqAfVjBbWw7nTCajf535rhvzvf/Kfyp9m0ZT1hZ0eXlIzzcKYq+yLre8yx3maxq2LeFr5fmnSuWtm+dGvdZ0cRulDfjLDA+fMtOHzVi1NXnZ3Nehjj4vnQOt9hrrBvbz1MWLgeev3JfK8eKw39av6J5fGy639+u+BwCAhyEY0A8rmK0th/Obb77p/SxWzQ9+/nP97Iev6jvf+Y43vWk9UXW6wY1MeHX6lbXX7r6d1s2zwaBbVvKCNOvmKTkYmFd25pJb/8FVDc0EW9TLuhmdNdMvacP5gT1x0Isy2Wwq+T4zdFmVxXNw3cr9nDXLzrilmtOh8y8NaeZKOXWvXZnR0EvnzZzN3gMAh02p2Njkgf1vy+Fsb/oKurecVjwe1yc+scVNLeflN8RrWLulmwpU1h3n9dLQsvKlFXqUnrUBZmyYF2CrUO8f69mq0OzxKuNa/JZ2n79t819bPCcngyVrYF27nz1pjbv97Dj/ktnrLTrzvDlxuGKi2LqmKzfd9jZ9DwAcNn6xsfkDrRNsZQdb3LttW+H8O19+3I1Jv1D4ni5cMGXsVtiKtGdGgYJxB9Z066YbDLIt4bPSVe8f622le9z0hq5pMrms5WRn6Qy004yb0taF5244o/H0TV0wJfHaxQu6WToxAADspeprzNXXoHfTlsP5jTfe0G9//V96w6/+fkzf+ta3ttFGce3cs1XXUU2gXrTjHc/qhKl1S+Ftpl+YCV6jXi7fqFXv+vXtvJaLrXNvGW9qY9euaMZUwrcrzkJtsNc5kbD7uZxUsbC24Vqu0DsV7QlUunbbbrCaf217UpOXT+il4i3cm74HAIDdUu/mr4cV0FsO5+npad183f/brt/7vW/queee84a37Mwldx01cK1kUOrzwueMLgXndV7Wi7eD14d7dCI/6ObZ67I1rh2fGVdaSXV6283rRBOVs73e27OhcrWt7Z6K68JlZj+v+icZdl8G9WKgrV0+AfH284rqt7y9a9szmjnxfOB1bPYeAMD+4B3DGjzC6OTJkxuCuagY0HaZ3dJmqsMtX6C4d++e2tvb9+jahr3T+YKit8P4d8Jh3jcAQFh1dnbq/v37pROWLVfO1qOPPuqGAABAq20rnI8cOaJvf/vbbgwAALTSttraAACgdVrS1gYAALuHcAYAIGQIZwAAQoZwBgAgZAhnAABChnAGACBkCGcAAPbYr7ifRW2rq6v8nfMOHDt2zA0BALA9L5w8qZuBv3P2wvnZZ591s7EVt27dIpwBADtWHc60tQEACI3P65uDZwlnAADC4TH9q/5/pKd/8CeEMwAAoXC8Q198/K7+LHefcAYAIDTu/1hvmR+EMwAAYfH4E/p75keDcL6m4eIt3d7jlC6uuVnV1i7qVKP5W9XC7V0bNvs+fM2NFdnX1sL9BQBgp+68rR/qmL4Se3yzyrlH6dsPZL/y+XZaSg5eVM086zivlx+8rPMdbnynWrU9E/IXbg5p6OYFghgAEHJ39a3/+hd654tfbb6t3XH+JQ0tX9bCPgq5tYXL0ovjGn9RuryfdhwAcKi84X5Kb+s/zF7d7jVnvy08PHxKbW3DZizYJnbD12xr2m+J267y2kW7rD9+KljGei3sYuvcbsvauL3yc5kptlVdXGdDy7poTV4293Woo89L541V/+3ycwf3qbntAwCwO5oO57WLFzTT86JM1jnLuhmd1YMHl3TGTSlbVvKCNPvggR5cHdLM2TYNyi7rjy8nJ8sh3HlZL7rW+YOr0oWa/efK5zpzyS1vVhiaqdOyXluQ2bK/vx19Zqi66g/so9+zL22nqe0DALBLNglnE2CdfgXZmTyhqy+fV/kycI9XldbWo/SsW/bM8xoKLuuN39QtG3hrt8xQ+Tnazs5oOX/bX65C1XNdG3aV7VnNuEnV/JZ2n9vfDtniOTkZrIID+9hxXi8NLav01E1sHwCA3dL0DWG1K+RWGNJVb/vucWmTZ7Ft8LNy69xWusdNr3BNk8llU6F3upC1JxfL0swVV7FXW9Otm8XBZrYPAMDu2eY15xbpeFYnTG1au5Vdx+28lnui6rTDtnVtMneDa1c005PW7WDoe0E7oyuldF4u3yTmbWdIz9vzgma2DwDALtrbcDa1+CXvem+5wt30Bqwz40orqU677GBeJ2pUtteuzKin1NIusq3tHlM8F7ffoxP5Qf85O5M6cdV1BprYPgAAu4mvjNwBvjISANAKJ0+e1H2+MhIAgPAinAEACBnCGQCAkCGcAQAIGcIZAICQ4W7tHbB3awMAsF3Fv/ipvlvbC2f+HAgAgIfr7t27dcOZtjYAACFDOAMAEDKEMwAAIUM4AwAQMoQzAAAhQzgDABAyhDMAACFDOAMAEDKEMwAAIcMnhAHAAfXkk0+6ocPp3LlzmpiYcGPh0+gTwghnADigbDi/9dZbbuxwuXHjhl555RXCGQAQLsVwPnr0qJtyeFy5coVwPijsLxMA9pvBwUHdu3fPjZURzoTzgWB/mfYfOQDsN4Rzpf0eztytDQBAyBDOAACEDOEMAEBoPK6RF862JpyXku1qTy65sRZbz6i3vVeZdTcOANiZpaTa281x23sk1fjovaTkdo/BHL+37Lf++a8rem+lBeFs3vzJfEKJ/OTu/AIio1osLGo04sYBANtnA3NAmisUVLCPlS6t7VJtxfF7q46p85m7+p9Lb+88nNevz0v9Yxrrl+avc3oEAKF2Z1W5WJeOu1EboKNxN4y99dRjesoE9D8b3HFbe11eNp+OKHLaS2czpchvhSSTveW2idfi8FspvZlMoFVS3TYJjheH15XpbVdF99y2Znoz/nMGtm0fpeWCywDAYRfvUyKX0kitVmfFcbROu7vuMv4xuvIYXHVsr3ecLi6XKbfbewP75106La5XPrh761RkzIFgKufZqzsM5/Xrmle/TDabs6/TZmhelcVzTvmuaRUKacXtG9mdUnTOb6VMm2WzbqnmRDQ6nlB2ofwrWFrIKjE+auZUbruwMqH8QDDsAQC+uNKFFfXPd3thVxGQ3eaIvuKOo3PS5IaDaL1lbDB3a75/xZ9uHukN1fhmx+mcUqt9brsJ5VJTZg1fPO3WMU+YyAYvoQYz5gB4967euG8q5/jndxbOfkv7tAlHKyJbPKemgucvMa+q9qyvKR+b0Jh7ByOj40r4g82zZ3zZBfcLW9JC3m3Pbttsra/424mMajyR0+odMxxPq7BoAxwA4DPFzmIxIF1Ae8dRE5DdrkIdyCrnHUQD6i1jC7VcQuONLi43Ok57YpooBoQ91pul14ohXLqBbaCqqAtkzD4XPWL/+77+8/x3lX+yeyfhvKSpVM6c3fhnX/bRbcZNaVs622m9uMYm8t6Z2npmUvnSiQEAYMtMQE5PxAIdyUT5RjH72Fj+Gs0s00K2FV66gW1FZncPpPxHbkD3Nf3fd9LWXlpQ1lTCK8FfkvfGZRXoPJdFOhTNpVQsrG24ls+AjqsrFjiDstt2g9X8a9tTmpqPls/S7LbNGqXnNb/Myaw7Q+OaMwCULWUCbWF731BOsa7jpePoxlZ2QL1l7GVNc+xvZt2ax+lGgjeweRW6N/XA23Y42+u9sQ2Vq21tB8/CguJKzyWUHfCr7BH1m/OvInc92c1rX7DnZnV417azykb7AtcYzLZde8Zb37smckCuQQBAK8U7tFpsS7d3KxWd06JX6PjHUQW6oRs/v6LeMrZNPqdoYPqGVbd7nI6PaUIpddt1RlYVPaCVc7U9/OKLJSXbJ9W1Ep6/geOLLwDsV3zxRSW++AIAALQU4QwAQMjsYTjHleZj3QAA2IDKOYDrzQCAMNjDG8IAALuJG8K4IQwAALQIlTMAHFC2cp6dnXVjh89+rpwJZwA4oFKplBs6vAhnAADQNK45AwCwjxDOAACEDOEMAEDIEM4AAIQM4QwAQMgQzgAAhAzhDABAyBDOAACEDOEMAEDI8AlhAHDA2M/Uxt44d+5c0x8Zysd3AsAhUvyqSDxcN27c2NKXbRDOAHCIHObvcd5LW/0OacJ5E/YNBYD9ZnBwUPfu3XNjZYTz3iCcW8y+ofYfOQDsN4RzeLQynLlbGwCAkCGcAQAIGcIZAICQ2UE4LynZ3q72wKM3s+7m7dB6Rr3tvWrV5gAAxlIycMxOmqN4I/YYv83j8J4dw6tzaf/myA4r55gmVgoqFOxjTtFUt9qTjX/dtVX9I4iMarGwqNGIGwcA7IwNzAFpzjtem8dKl9a2c7huxp4ew8u5tDIhpUYy2no+7+DEpEVa2NaOK23eiVh2YZOzMQDAQ3dnVblYl467URugo3E3fEBFRseVyM3r+j6snlt7zTlyWv2xrBaK6ey1NqpbKOvK9JbbDskle4YyoKxySnWbaV7lHTxrccOZcjumon1e8Rx2e266bd/0bueMCQAOoHifCaqURmqVgzWP1VXqLlN9TLfTqirPesfpTY7vS8nyOuWurL9OMtlrpm/Wmq9Ue3vNZFK9dXfPLt4QZl5g97z6i23vOWnSvulLU0pF51wrvKB03FTcZmai2IpI1zqVM2/Sap/bTkK51JT7hdjnSCk6557DVO75gb1tRQBAONlj7Yr657tdCLnJ9Y7VFeotY4OtW/P9K/5089h4CN/sOF3v+G72OO3WsRmRnaxYJ981baanzauqbz0zqWysX6dde73m9prMpPr7sjt2IZxj6rJ9k/U15YtnHvZMY8Cch6zekY53KZYd2OLNY+ZNGnO/Anv2Z7a8Zlf3niOhvuJvJzKq8URO9mnMO6nC4qi4bA0ARRGNLpqA8QLSBXS9Y3VQvWXWr2s+l9B4o4vLjY7TnjrHd6t0A5utZINi6i8m7gbl/exORTUXzIFa22s2k+ruy+5obTh7v6ioOkrvRKJ884F92DMQ70aBgqY14r3Qh9AdAAAEmePw9ERM2dI1yBrH6g2aWaaFbCu8dAPbiszuNql8Q1hFZV1ve81k0rb3ZftaGM7F1oV7MyIdiprzi43tEV9kdFEr5hXmS6dI2+CeI3iNezLrztC45gwAZUuZQCt2Xdfnc4rZNucmx2pPvWXcfUbNrFvzON1I8AY2r/Dzpm7fJttrmEmt3pcm7DCcA22O9kl1mbOV8smUf/e2WcDNNw97SlJqDfgtB78dEldfwm1rS6W0/xy2PeNt07sm0vgaBAAcSvEOrZaO193eddZFd/yteayuUG8Z2yZ3f0brpm88hG/zOB0f04RS6rbrjKwqutNqtd72msmkVu9LE/jiC4MvvgCwX/HFF+HBF18AAHCAEc4AAIQM4QwAQMgQzgbXmwEAYcINYQBwwHBD2N7ghjAAAA4wKmcAOGBs5Tw7O+vG8DC1qnImnAHggEmlUm4Ie4FwBgBgn+KaMwAA+wjhDABAyBDOAACEDOEMAEDIEM4AAIQM4QwAQMgQzgAAhAzhDABAyBDOAACEDJ8QBjj284ix+86dO9f0xxsCBxkf3wk0ofg1e9g9N27c2NIXAwAHGeEMNIHvwN19W/2+W+Ag47O1AQDYRwhnAABChnAGACBkCGcAAEKGcAYAIGQIZ6Ap68r0tqu93T16M2bKDqxn1Nveq8yONuJbSpr9SS65sRZr4X4CaB7hDGzGC6hurY4XVCi4x7R0fSd5GBnVYmFRoxE3vl1m3ybzCSXyk7sToK3aTwBbQjgDDZmKeSSl6FxB6bibZJnQGg2O75H16/NS/5jG+qX565S3wEFBOAONrF/XfC6hvkZB7FXW5ZZ3ucO8pKRtCS+V5/eWyls3z416reniNkob8JdJJnvN9KQZq7YuL5tPRxQ57aVzoNVeY93AfvZmMoHnr9yXyvHisN/Wr+ieLyXL7f267wGArXlcIy+cJZyBTcW6dNwNbmTCq9uvrL1298qE8gPBoMspNSlNu3lKjQTmlcXTbv3CnBLZYIs6p3zXtJme1obzA3vioH6ZbDaV/GkzNK/K4jm4buV+Tptls26p5kQ0Op5QdqGcuksLWSXGR82czd4DAJuJHvF/fukfd0p/eJVwBjaVW9UdN7jB+pryClTWkVGNJ3JaLa0Q08S0DTBjw7wAW4V6VedAVWjGvMq4Fr+lfdrftvmvLZ5TU8GSNbCu3c/YhMbcfkZGx81eb1G8z5w4LJgotpa0kHfb2/Q9ALCZJ558xPv5+qt/rul3aGsDjdmKNJZVoGDcgXWt5d1gkG0JD0hzXuW8oomYm97QkqZSOeVS3aVWcrcZN6WtC8/dENfYRF6TpiRez0wqXzoxANAyTx/X7w/S1gY24dq5A1XXUU2gZux4pENRU+uWwttMn8wGr1Hnyjdq1bt+fWdVuWLr3FvGm9rY0oKyphJe8QK9+LDBXudEwu5nLqViYW3DtVyhH1dXLFDp2m27wWr+te0pTc1HNV68hXvT9wDAZj786GPz32P6xtlO6Qd/QjgDm4qn3XXU8g1P7SPSaS984koH53XPq38leH04pujqiJtnr8vWuHYcH9OEUur2truqaBOVs73eG9tQudrWdqziunCZ2c85/yTD7suI+gNt7fIJiLefC6rf8vaubWeVjfYFXsdm7wGAzRTuuQHjncJ9vjISKGr9V0baO50n1bUSxr8T3pt94ysjgbJaXxl5MvZVJf7hE1TOAACExeuv/qnGZrlbGwCA0CGcgV0TVzq0H30Z5n0DQDgDABAyhDMAACFDOAMAEDL8KRXg2D+lmp2ddWPYLfwpFeCr9adUbW1t/oNwBnypVMoNYbcRzgDhDABA6DQKZ645AwAQMoQzAAAhQzgDABAyhDMAACFDOAMAEDKEMwAAIUM4AwAQMoQzAAAhQzgDABAyhDMAACFDOAMAEDKEMwAAIUM4AwAQMoQzAAAhQzgDABAyhDMAACFDOAMAEDKEMwAAIUM4AwAQMoQzAAAhQzgDABAyhDMAACFDOAMAEDKEMwAAIUM4AwAQMoQzAAAhQzgDABAyhDMAACFDOAMAEDKEMwAAIdO2urr64NixY24UOJiefPJJN4T94Ny5c5qYmHBjwMF09+5dFfP35MmTun//vtra2vwH4YzDwIbzW2+95cYQZjdu3NArr7xCOOPAI5xx6BXD+ejRo24KwurKlSuEMw6FRuHMNWcAAEKGcAYAIGQIZwAAQoZwBgAgZAhnAABChnAGtK5Mb7va292jN2Om1LCeUW97rzI1ZzZpKVl+nvakltzkvbOk5DZf01LSvIZk9SvY/vYAlBHOONy8wO3W6nhBhYJ7TEvXa6VmZFSLhUWNRtz4VtnnGpDmis+z0qW1vU/n7TGvZTKfUCI/SRADu4BwxiFmKuaRlKJzBaXjbpJlQng0ON4qd1aVi3XpuBvdted5CNavz0v9Yxrrl+avk85AqxHOOLzWr2s+l1Bf3YD0W7TJZK9rQVe2bL22brFFXWrvVq8TEO9TIpfSSK1S06vgi9sLrBeY3pvJBJ6/un0cHHfDmXILvTf4nBXbXHMTfbVfU7V1edl8OqLIaS+dN14GuBN8jvLc5rYPgHDG4RasZGvKKd81rUIhreoMj6eLrfA5JbLB9m69deJKF1bUP9/thVM5m0yYds+rf8Vtb06a9DZmp/uVvZ0+rXll/RWakFNqtc9tL6FcaspszWq8zfqvKcCe1KhfJptN9X/aDM2rsng2zz0pTdvtrExIqZHSdpraPgDCGYdcblV33GBtMa9CrKl0c9dAVWg2WEcRjS76oZUfcAG9vqa8DbRuV1EOZM1umb2y02MTGnMJHxkdV8IfbEJME8UVbcVunmHNBuFm26z7msr8lvZp80qsiGzxnJoKVsHmuadH/fmRUY0ncrIvx9PE9gEQzjjMbNUXy2phO93Vipu7VjQRc9ObZUJr2qyULT15onyjmH1UXAR/SJp6TUuaSuVMJe5X//bRbcbNC3GVebV1reWLgzt8z4BDhHDGIWaq2PGEssUKtsiESGazwA7e3OVdu/amNrZktltq49rrtjnFuswWIh2KmjrSb2UH2Om5lIpF6XpmMlBtHldXLFiRLjRXiTbaZjOvyT6PqbxXgicSXtAGT3Jy5ZvEgtf1t/OeAYcU4YzDLZ4utZiLlWD7iHR6s8I1PqYJpdTtLb+qaDNVYLxDq8XWdXu3UtE5LXp/lxVX2rs2W65G/ZulzPQ5/+TBThtRf6AFXT6x8JZfsLV3Mxpss4nXtLSQVazU0i6yre1gFyCm6OqIv1/e9W137X077xlwSPGVkTgUDsRXRtq2cPeqxmvcnHaQ8JWROCz4ykjgAFiaSlX+nTSAA4twBkKr8mNFB7IJzS26u6ABHGiEMxBa7s+uSjdeHex2NoAywhkAgJAhnAEACBnCGQCAUJH+P3EepgSjmrduAAAAAElFTkSuQmCC;" vertex="1" parent="1">
          <mxGeometry x="1683" y="960" width="487" height="217" as="geometry" />
        </mxCell>
        <mxCell id="hAGfu4WVWiaM9kF5Nsgz-11" value="" style="shape=flexArrow;endArrow=classic;html=1;rounded=0;fillColor=#f8cecc;strokeColor=#b85450;" edge="1" parent="1" source="hAGfu4WVWiaM9kF5Nsgz-1" target="hAGfu4WVWiaM9kF5Nsgz-10">
          <mxGeometry width="50" height="50" relative="1" as="geometry">
            <mxPoint x="1860" y="1230" as="sourcePoint" />
            <mxPoint x="1910" y="1180" as="targetPoint" />
          </mxGeometry>
        </mxCell>
        <mxCell id="hAGfu4WVWiaM9kF5Nsgz-12" value="" style="triangle;whiteSpace=wrap;html=1;fillColor=#ffe6cc;strokeColor=#d79b00;" vertex="1" parent="1">
          <mxGeometry x="2570" y="1314.5" width="60" height="80" as="geometry" />
        </mxCell>
        <mxCell id="hAGfu4WVWiaM9kF5Nsgz-13" value="Roda o SCRIPT VBA" style="whiteSpace=wrap;html=1;aspect=fixed;fillColor=#ffe6cc;strokeColor=#d79b00;fontStyle=1;fontSize=15;" vertex="1" parent="1">
          <mxGeometry x="2700" y="1230" width="250" height="250" as="geometry" />
        </mxCell>
        <mxCell id="hAGfu4WVWiaM9kF5Nsgz-14" value="" style="triangle;whiteSpace=wrap;html=1;fillColor=#ffe6cc;strokeColor=#d79b00;rotation=90;" vertex="1" parent="1">
          <mxGeometry x="3460" y="1970" width="60" height="80" as="geometry" />
        </mxCell>
        <mxCell id="hAGfu4WVWiaM9kF5Nsgz-15" value="Documentos Gerado" style="whiteSpace=wrap;html=1;aspect=fixed;fillColor=#ffe6cc;strokeColor=#d79b00;fontStyle=1;fontSize=15;" vertex="1" parent="1">
          <mxGeometry x="3365" y="2180" width="250" height="250" as="geometry" />
        </mxCell>
        <mxCell id="hAGfu4WVWiaM9kF5Nsgz-16" value="" style="rounded=0;whiteSpace=wrap;html=1;" vertex="1" parent="1">
          <mxGeometry x="1860" y="1590" width="520" height="300" as="geometry" />
        </mxCell>
      </root>
    </mxGraphModel>
  </diagram>
</mxfile>
